<svg width="1440" height="780" viewBox="0 0 1440 780" fill="none" xmlns="http://www.w3.org/2000/svg">
<g clip-path="url(#clip0_217_135)">
<path d="M0 934.32L1440 934.32L1440 0L0 0L0 934.32Z" fill="#5369E8"/>
<path d="M1440 518.16L1400 537.336C1360 556.104 1280 594.456 1200 604.656C1120 614.856 1040 596.904 960 604.656C880 612 800 644.64 720 656.88C640 669.12 560 660.96 480 645.864C400 631.176 320 609.144 240 614.04C160 618.936 80 649.944 40 665.856L0 681.36L0 -4.08002H40C80 -4.08002 160 -4.08002 240 -4.08002C320 -4.08002 400 -4.08002 480 -4.08002C560 -4.08002 640 -4.08002 720 -4.08002C800 -4.08002 880 -4.08002 960 -4.08002C1040 -4.08002 1120 -4.08002 1200 -4.08002C1280 -4.08002 1360 -4.08002 1400 -4.08002H1440L1440 518.16Z" fill="#4D64DB"/>
<path d="M1440 338.64L1400 361.08C1360 383.52 1280 428.4 1200 427.584C1120 427.176 1040 380.664 960 349.656C880 318.24 800 301.92 720 327.624C640 353.736 560 421.464 480 459C400 496.536 320 503.064 240 505.104C160 507.144 80 504.696 40 503.064L0 501.84V-4.0798L40 -4.0798C80 -4.0798 160 -4.0798 240 -4.0798C320 -4.0798 400 -4.0798 480 -4.0798C560 -4.0798 640 -4.0798 720 -4.0798C800 -4.0798 880 -4.0798 960 -4.0798C1040 -4.0798 1120 -4.0798 1200 -4.0798C1280 -4.0798 1360 -4.0798 1400 -4.0798H1440V338.64Z" fill="#4158CF"/>
<path d="M1440 187.68L1400 207.264C1360 227.256 1280 266.424 1200 270.504C1120 274.584 1040 243.576 960 203.184C880 163.2 800 114.24 720 123.216C640 131.784 560 198.696 480 220.32C400 241.944 320 219.096 240 210.12C160 201.144 80 206.856 40 209.304L-2.14577e-05 212.16V-4.07998L40 -4.07998C80 -4.07998 160 -4.07998 240 -4.07998C320 -4.07998 400 -4.07998 480 -4.07998C560 -4.07998 640 -4.07998 720 -4.07998C800 -4.07998 880 -4.07998 960 -4.07998C1040 -4.07998 1120 -4.07998 1200 -4.07998C1280 -4.07998 1360 -4.07998 1400 -4.07998H1440V187.68Z" fill="#364ECD"/>
</g>
<defs>
<clipPath id="clip0_217_135">
<rect width="1440" height="2448" fill="white" transform="matrix(-1 0 0 -1 1440 2448)"/>
</clipPath>
</defs>
</svg>
