<svg width="450" height="475" viewBox="0 0 450 475" fill="none" xmlns="http://www.w3.org/2000/svg">
<g style="mix-blend-mode:lighten">
<path fill-rule="evenodd" clip-rule="evenodd" d="M333.13 468.334C329.431 469.733 325.681 470.933 321.882 471.933C318.182 472.833 314.433 473.533 310.633 474.033C306.834 474.533 302.985 474.833 299.085 474.932C295.186 475.032 291.336 474.883 287.537 474.483C283.637 474.183 279.688 473.633 275.689 472.833C271.789 472.133 267.84 471.283 263.84 470.283C259.841 469.183 255.842 467.934 251.842 466.534C247.843 465.134 243.843 463.584 239.844 461.884C235.745 460.285 231.645 458.485 227.546 456.485C223.546 454.586 219.497 452.536 215.398 450.336C211.298 448.137 207.199 445.837 203.1 443.437C199 441.138 194.851 438.688 190.651 436.088C186.552 433.489 182.403 430.839 178.203 428.14C174.104 425.44 169.955 422.69 165.755 419.891C161.656 416.991 157.506 414.092 153.307 411.192C149.108 408.292 144.958 405.343 140.859 402.343C136.66 399.344 132.46 396.294 128.261 393.195C124.161 390.195 120.062 387.146 115.963 384.046C111.763 380.947 107.664 377.847 103.664 374.748C99.5651 371.648 95.5657 368.498 91.6663 365.299C87.6669 362.199 83.7674 359.05 79.968 355.85C76.1686 352.651 72.4191 349.451 68.7197 346.252C65.1202 342.952 61.5708 339.703 58.0713 336.503C54.5718 333.204 51.2223 329.904 48.0228 326.605C44.7233 323.405 41.5738 320.156 38.5742 316.856C35.5747 313.557 32.7251 310.257 30.0255 306.958C27.3259 303.658 24.7763 300.309 22.3766 296.909C19.977 293.61 17.7273 290.31 15.6277 287.011C13.628 283.611 11.7782 280.262 10.0785 276.962C8.37874 273.563 6.87897 270.213 5.57916 266.914C4.27936 263.514 3.17952 260.165 2.27966 256.865C1.47978 253.466 0.879868 250.116 0.479928 246.817C0.079988 243.417 -0.0699895 240.068 0.0299955 236.768C0.129981 233.369 0.479928 230.019 1.07984 226.72C1.67975 223.32 2.47963 219.971 3.47948 216.671C4.57931 213.372 5.82913 210.072 7.22892 206.773C8.72869 203.373 10.3784 200.074 12.1782 196.874C14.0779 193.575 16.1276 190.275 18.3273 186.976C20.5269 183.676 22.8766 180.427 25.3762 177.227C27.8758 174.028 30.5254 170.828 33.325 167.629C36.1246 164.429 39.0741 161.23 42.1737 158.03C45.2732 154.931 48.4727 151.831 51.7722 148.731C55.0717 145.632 58.4712 142.532 61.9707 139.433C65.4702 136.333 69.0696 133.284 72.7691 130.284C76.3686 127.285 80.068 124.335 83.8674 121.436C87.6668 118.436 91.5163 115.536 95.4157 112.737C99.3151 109.837 103.265 106.988 107.264 104.188C111.263 101.289 115.263 98.489 119.262 95.7894C123.262 93.0898 127.261 90.3902 131.26 87.6906C135.26 84.991 139.259 82.3414 143.259 79.7418C147.258 77.2422 151.207 74.7425 155.107 72.2429C159.106 69.7433 163.056 67.3436 166.955 65.044C170.954 62.6444 174.904 60.3447 178.803 58.145C182.703 55.9454 186.602 53.7957 190.501 51.696C194.401 49.6963 198.3 47.7466 202.2 45.8469C205.999 44.0471 209.849 42.2974 213.748 40.5977C217.547 38.9979 221.347 37.4481 225.146 35.9484C229.046 34.5486 232.895 33.2988 236.695 32.1989C240.494 30.9991 244.243 29.9493 247.943 29.0494C251.742 28.1495 255.542 27.3996 259.341 26.7997C263.041 26.1998 266.79 25.7499 270.589 25.4499C274.289 25.15 277.988 25 281.688 25C285.487 25 289.237 25.2 292.936 25.5999C296.636 25.9999 300.335 26.5998 304.034 27.3996C307.634 28.1995 311.283 29.1494 314.983 30.2492C318.682 31.449 322.332 32.8488 325.931 34.4486C329.631 36.0483 333.28 37.8481 336.879 39.8478C340.479 41.8475 344.078 44.0471 347.678 46.4468C351.277 48.8464 354.827 51.446 358.326 54.2456C361.826 56.9452 365.275 59.8948 368.675 63.0943C372.174 66.1938 375.574 69.4933 378.873 72.9928C382.173 76.3923 385.372 79.9918 388.472 83.7912C391.671 87.5906 394.771 91.54 397.77 95.6394C400.77 99.6388 403.669 103.788 406.469 108.088C409.269 112.487 411.968 116.936 414.568 121.436C417.167 126.035 419.667 130.734 422.067 135.533C424.466 140.233 426.716 145.082 428.816 150.081C430.915 155.08 432.865 160.13 434.665 165.229C436.565 170.428 438.264 175.627 439.764 180.827C441.264 186.126 442.614 191.475 443.813 196.874C445.113 202.273 446.163 207.773 446.963 213.372C447.863 218.871 448.563 224.37 449.063 229.869C449.563 235.468 449.863 241.118 449.963 246.817C450.063 252.416 449.963 258.065 449.663 263.764C449.363 269.363 448.863 275.012 448.163 280.712C447.563 286.311 446.763 291.91 445.763 297.509C444.763 303.108 443.613 308.657 442.314 314.157C440.914 319.756 439.414 325.255 437.814 330.654C436.215 336.053 434.415 341.403 432.415 346.702C430.515 351.901 428.466 357.05 426.266 362.149C424.166 367.249 421.867 372.248 419.367 377.147C416.967 381.946 414.468 386.696 411.868 391.395C409.169 395.994 406.419 400.444 403.619 404.743C400.72 409.142 397.77 413.342 394.771 417.341C391.671 421.341 388.522 425.19 385.322 428.889C382.123 432.589 378.873 436.088 375.574 439.388C372.274 442.687 368.875 445.787 365.375 448.686C361.976 451.586 358.476 454.236 354.877 456.635C351.277 459.035 347.678 461.235 344.078 463.234C340.479 465.134 336.829 466.834 333.13 468.334Z" fill="#647BFE"/>
</g>
<path d="M358.156 358.568C361.722 388.554 371.738 428.571 376.339 443.555H329.552L300.856 440.299C300.856 440.299 294.204 381.833 290.027 369.031C285.851 356.229 289.085 234.084 288.956 232.854C288.826 231.624 359.265 261.61 366.287 290.159C369.003 301.28 356.955 348.451 358.156 358.568Z" fill="white"/>
<path d="M376.339 444.422C376.482 444.424 376.625 444.394 376.754 444.334C376.883 444.274 376.994 444.185 377.078 444.075C377.161 443.966 377.218 443.842 377.243 443.71C377.269 443.578 377.263 443.442 377.225 443.313C372.643 428.346 362.591 388.087 359.08 358.429C358.563 354.064 360.651 342.232 362.776 329.725C365.677 313.285 368.67 296.291 367.099 289.882C360.355 262.372 293.353 231.866 288.882 231.866C288.642 231.904 288.426 232.025 288.276 232.204C288.125 232.384 288.052 232.609 288.069 232.836C288.069 233.096 288.069 236.405 287.921 240.978C287.348 269.977 285.611 358.204 289.177 369.17C293.261 381.746 299.895 439.675 299.95 440.195C299.974 440.389 300.067 440.57 300.215 440.709C300.362 440.847 300.556 440.935 300.763 440.957L329.349 444.422H376.339ZM375.119 442.689H329.552L301.632 439.519C300.837 432.59 294.795 380.915 290.84 368.771C288.531 361.669 288.143 318.725 289.676 241.117C289.676 237.185 289.787 235.071 289.806 233.945C298.287 236.907 358.803 263.914 365.307 290.367C366.785 296.378 363.681 313.961 360.946 329.465C358.729 342.111 356.622 354.064 357.251 358.655C360.761 387.688 370.37 426.873 375.119 442.689Z" fill="#505258"/>
<path d="M377.577 398.844L373.419 372.877L288.679 386.857L292.097 414.92L377.577 398.844Z" fill="white"/>
<path d="M292.079 415.786H292.263L377.761 399.71C377.993 399.661 378.197 399.532 378.333 399.35C378.47 399.168 378.529 398.944 378.501 398.723L374.325 372.738C374.306 372.625 374.264 372.516 374.201 372.418C374.138 372.32 374.054 372.234 373.955 372.167C373.855 372.099 373.741 372.05 373.62 372.023C373.5 371.996 373.375 371.992 373.253 372.011L288.531 386.008C288.3 386.042 288.093 386.159 287.952 386.333C287.81 386.507 287.746 386.726 287.773 386.943L291.173 415.024C291.188 415.143 291.228 415.259 291.291 415.363C291.355 415.467 291.44 415.558 291.543 415.63C291.701 415.731 291.887 415.786 292.079 415.786ZM376.542 398.151L292.892 413.898L289.695 387.567L372.643 373.882L376.542 398.151Z" fill="#505258"/>
<path d="M286.517 443.555L284.706 403.781L381.42 386.008L394.318 443.555H286.517Z" fill="#364ECD"/>
<path d="M286.516 444.422H394.318C394.455 444.423 394.591 444.396 394.715 444.342C394.84 444.288 394.95 444.209 395.038 444.11C395.122 444.007 395.181 443.89 395.213 443.764C395.245 443.639 395.248 443.509 395.223 443.382L382.288 385.835C382.269 385.723 382.225 385.616 382.159 385.52C382.094 385.425 382.009 385.343 381.908 385.28C381.808 385.217 381.695 385.173 381.576 385.152C381.457 385.132 381.335 385.134 381.217 385.159L284.484 402.933C284.265 402.967 284.068 403.076 283.931 403.24C283.794 403.403 283.728 403.609 283.745 403.816L285.593 443.659C285.624 443.869 285.734 444.061 285.903 444.201C286.073 444.341 286.291 444.419 286.516 444.422ZM393.172 442.689H287.403L285.556 404.474L380.607 387.013L393.172 442.689Z" fill="#505258"/>
<path d="M138.571 7.70391L387.829 92.8022L267.27 403.164L18.0125 318.066L138.571 7.70391Z" fill="white"/>
<path d="M267.263 404.007C267.452 404.007 267.638 403.952 267.793 403.849C267.948 403.747 268.066 403.602 268.131 403.435L388.701 93.0904C388.784 92.8745 388.772 92.6364 388.668 92.4285C388.564 92.2206 388.376 92.0599 388.146 91.9817L138.895 6.87301C138.781 6.83128 138.66 6.81119 138.537 6.8139C138.415 6.81661 138.294 6.84208 138.183 6.88881C138.071 6.93555 137.97 7.00263 137.886 7.08616C137.803 7.16968 137.737 7.26799 137.694 7.37538L17.0693 317.737C16.9769 317.948 16.9769 318.185 17.0693 318.396C17.118 318.5 17.1891 318.594 17.2781 318.671C17.3671 318.749 17.4721 318.808 17.5867 318.846L266.856 403.955C266.985 404.002 267.125 404.02 267.263 404.007ZM386.631 93.2983L266.708 402.032L19.1019 317.512L139.025 8.79588L386.631 93.2983Z" fill="#505258"/>
<path d="M146.059 6.38932L395.317 91.4876L274.758 401.849L25.5002 316.751L146.059 6.38932Z" fill="white"/>
<path d="M274.746 402.69C274.935 402.694 275.119 402.642 275.275 402.543C275.431 402.444 275.549 402.301 275.615 402.136L396.184 91.7739C396.228 91.6671 396.248 91.5532 396.244 91.4389C396.24 91.3246 396.211 91.2123 396.159 91.1088C396.107 91.0053 396.034 90.9126 395.943 90.8364C395.852 90.7601 395.745 90.7019 395.63 90.6652L146.416 5.55645C146.302 5.51539 146.181 5.49632 146.059 5.50038C145.937 5.50445 145.817 5.53156 145.707 5.5801C145.596 5.62863 145.497 5.69759 145.416 5.78284C145.335 5.86808 145.273 5.96785 145.233 6.07615L24.6639 316.421C24.6201 316.527 24.5998 316.641 24.6041 316.756C24.6085 316.87 24.6374 316.982 24.6891 317.086C24.7409 317.189 24.8145 317.282 24.9054 317.358C24.9963 317.434 25.1028 317.493 25.2183 317.529L274.432 402.638L274.746 402.69ZM394.133 91.9991L274.192 400.646L26.5856 316.126L146.619 7.41003L394.133 91.9991Z" fill="#505258"/>
<path d="M153.795 2.01315L403.15 86.5682L283.361 397.051L34.0054 312.496L153.795 2.01315Z" fill="white"/>
<path d="M282.507 397.181C282.694 397.18 282.877 397.127 283.031 397.028C283.186 396.929 283.306 396.79 283.376 396.627L403.945 86.2824C404.028 86.0664 404.017 85.8284 403.913 85.6205C403.809 85.4126 403.621 85.2519 403.391 85.1737L154.121 0.0649736C153.896 -0.0216579 153.644 -0.0216579 153.419 0.0649736C153.197 0.169197 153.025 0.348791 152.939 0.567344L32.3692 310.912C32.286 311.128 32.2977 311.366 32.4016 311.574C32.5056 311.782 32.6933 311.942 32.9236 312.021L282.193 397.181C282.297 397.199 282.403 397.199 282.507 397.181ZM401.894 86.5076L281.953 395.224L34.3464 310.704L154.362 1.98785L401.894 86.5076Z" fill="#505258"/>
<path d="M289.813 78.0799L358.197 101.268L328.33 178.681L259.946 155.493L289.813 78.0799Z" fill="white"/>
<path d="M289.658 77.3263L259.594 154.657L327.963 177.991L358.009 100.661L289.64 77.3263M289.64 75.594C289.854 75.5942 290.067 75.6294 290.268 75.6979L358.637 99.0322C358.867 99.1095 359.079 99.2289 359.26 99.3836C359.441 99.5382 359.587 99.725 359.69 99.933C359.784 100.144 359.833 100.371 359.833 100.6C359.833 100.829 359.784 101.056 359.69 101.267L329.626 178.65C329.494 178.981 329.257 179.267 328.946 179.468C328.636 179.669 328.267 179.777 327.889 179.776C327.675 179.775 327.462 179.74 327.261 179.672L258.892 156.337C258.432 156.181 258.056 155.86 257.848 155.444C257.64 155.028 257.617 154.552 257.783 154.12L287.921 76.7027C288.05 76.3679 288.286 76.0785 288.597 75.8739C288.908 75.6693 289.278 75.5595 289.658 75.5593L289.64 75.594Z" fill="#505258"/>
<path d="M257.451 80.1673C257.696 80.2086 257.949 80.157 258.153 80.0238C258.357 79.8906 258.497 79.6867 258.541 79.457C258.585 79.2273 258.53 78.9906 258.388 78.7989C258.246 78.6072 258.029 78.4763 257.784 78.435L206.84 61.1118C206.725 61.072 206.604 61.0536 206.483 61.0578C206.361 61.0619 206.241 61.0885 206.131 61.1359C206.02 61.1834 205.92 61.2508 205.838 61.3343C205.755 61.4179 205.69 61.5159 205.648 61.6228C205.605 61.7297 205.586 61.8435 205.59 61.9575C205.594 62.0715 205.623 62.1836 205.673 62.2873C205.724 62.3911 205.796 62.4845 205.885 62.5622C205.974 62.6399 206.079 62.7004 206.193 62.7402L257.137 80.1673H257.451Z" fill="#505258"/>
<path d="M250.411 98.3567C250.6 98.3542 250.784 98.2983 250.939 98.1963C251.094 98.0944 251.212 97.951 251.279 97.785C251.323 97.6783 251.343 97.5644 251.339 97.4501C251.335 97.3358 251.306 97.2235 251.254 97.12C251.202 97.0164 251.129 96.9237 251.038 96.8475C250.947 96.7713 250.84 96.713 250.725 96.6763L177.829 71.7829C177.598 71.7049 177.344 71.7159 177.123 71.8133C176.901 71.9108 176.73 72.0868 176.646 72.3026C176.562 72.5164 176.571 72.7526 176.671 72.9601C176.772 73.1676 176.955 73.3297 177.182 73.4113L250.097 98.3047C250.197 98.3386 250.304 98.3562 250.411 98.3567Z" fill="#505258"/>
<path d="M243.371 116.546C243.559 116.541 243.742 116.484 243.897 116.383C244.051 116.281 244.17 116.139 244.239 115.974C244.322 115.758 244.311 115.52 244.207 115.312C244.103 115.104 243.915 114.944 243.685 114.866L210.794 103.623C210.563 103.545 210.309 103.556 210.088 103.653C209.866 103.751 209.694 103.927 209.611 104.143C209.567 104.249 209.547 104.363 209.551 104.477C209.556 104.592 209.585 104.704 209.636 104.808C209.688 104.911 209.762 105.004 209.853 105.08C209.943 105.156 210.05 105.215 210.165 105.251L243.056 116.494C243.157 116.529 243.263 116.547 243.371 116.546Z" fill="#505258"/>
<path d="M197.582 100.851C197.772 100.854 197.959 100.8 198.115 100.697C198.271 100.594 198.388 100.448 198.45 100.28C198.534 100.064 198.522 99.8255 198.418 99.6176C198.314 99.4097 198.126 99.249 197.896 99.1708L165.005 87.9454C164.777 87.8747 164.528 87.8904 164.312 87.9889C164.095 88.0875 163.929 88.2613 163.847 88.4733C163.765 88.6853 163.775 88.9189 163.874 89.1244C163.973 89.3299 164.153 89.4911 164.377 89.5738L197.268 100.799C197.369 100.833 197.475 100.851 197.582 100.851Z" fill="#505258"/>
<path d="M236.312 134.631C236.557 134.673 236.809 134.621 237.014 134.488C237.218 134.355 237.358 134.151 237.402 133.921C237.446 133.691 237.391 133.455 237.249 133.263C237.107 133.071 236.889 132.94 236.644 132.899L185.7 115.576C185.47 115.498 185.216 115.509 184.994 115.606C184.773 115.704 184.601 115.88 184.518 116.096C184.473 116.201 184.452 116.314 184.455 116.427C184.459 116.541 184.486 116.653 184.536 116.756C184.586 116.859 184.657 116.952 184.746 117.029C184.835 117.106 184.94 117.166 185.054 117.204L235.998 134.527L236.312 134.631Z" fill="#A3A3A3"/>
<path d="M285.888 191.261C286.08 191.266 286.267 191.213 286.424 191.11C286.58 191.007 286.697 190.859 286.757 190.689C286.84 190.473 286.828 190.235 286.725 190.027C286.621 189.819 286.433 189.659 286.203 189.58L235.905 172.413C235.677 172.343 235.428 172.358 235.212 172.457C234.995 172.555 234.829 172.729 234.747 172.941C234.665 173.153 234.675 173.387 234.774 173.592C234.873 173.798 235.053 173.959 235.277 174.042L285.574 191.209L285.888 191.261Z" fill="#A3A3A3"/>
<path d="M288.477 213.891L311.048 221.597L304.473 238.526L281.901 230.82L288.477 213.891Z" fill="white"/>
<path d="M304.459 239.367C304.587 239.392 304.719 239.392 304.847 239.367C305.064 239.265 305.234 239.093 305.328 238.882L311.906 221.94C311.989 221.724 311.977 221.486 311.873 221.278C311.77 221.07 311.582 220.91 311.351 220.831L288.697 213.053C288.472 212.967 288.22 212.967 287.995 213.053C287.778 213.156 287.608 213.328 287.515 213.538L280.937 230.463C280.853 230.679 280.865 230.917 280.969 231.125C281.073 231.333 281.261 231.494 281.491 231.572L304.071 239.281C304.192 239.337 304.324 239.367 304.459 239.367ZM309.855 222.044L303.905 237.34L283.062 230.238L289.012 214.924L309.855 222.044Z" fill="#505258"/>
<path d="M300.811 183.562L323.383 191.268L316.807 208.197L294.235 200.49L300.811 183.562Z" fill="white"/>
<path d="M316.802 209.052C316.991 209.047 317.174 208.99 317.328 208.888C317.483 208.787 317.602 208.645 317.671 208.48L324.249 191.555C324.332 191.339 324.321 191.101 324.217 190.893C324.113 190.686 323.925 190.525 323.695 190.447L301.115 182.738C300.884 182.66 300.63 182.671 300.409 182.768C300.187 182.866 300.015 183.042 299.932 183.258L293.354 200.182C293.271 200.398 293.282 200.636 293.386 200.844C293.49 201.052 293.678 201.213 293.908 201.291L316.414 209C316.538 209.045 316.671 209.062 316.802 209.052ZM322.198 191.729L316.248 207.042L295.405 199.922L301.355 184.626L322.198 191.729Z" fill="#505258"/>
<path d="M274.857 219.688C275.046 219.683 275.229 219.627 275.383 219.525C275.538 219.423 275.657 219.281 275.726 219.116C275.809 218.901 275.797 218.662 275.693 218.455C275.589 218.247 275.402 218.086 275.171 218.008L224.874 200.823C224.644 200.745 224.39 200.756 224.168 200.854C223.946 200.951 223.775 201.127 223.691 201.343C223.648 201.45 223.627 201.564 223.632 201.678C223.636 201.792 223.665 201.904 223.717 202.008C223.768 202.111 223.842 202.204 223.933 202.28C224.024 202.357 224.13 202.415 224.246 202.452L274.543 219.636C274.643 219.672 274.75 219.689 274.857 219.688Z" fill="#A3A3A3"/>
<path d="M194.066 149.47L216.638 157.176L210.062 174.105L187.49 166.399L194.066 149.47Z" fill="white"/>
<path d="M210.055 174.96C210.244 174.96 210.43 174.905 210.585 174.802C210.74 174.7 210.858 174.555 210.923 174.388L217.501 157.463C217.551 157.36 217.577 157.248 217.577 157.134C217.577 157.021 217.551 156.908 217.501 156.805C217.456 156.699 217.385 156.604 217.296 156.526C217.207 156.448 217.1 156.389 216.984 156.355L194.459 148.646C194.229 148.568 193.975 148.579 193.753 148.676C193.531 148.774 193.36 148.95 193.276 149.165L186.698 166.09C186.654 166.197 186.634 166.311 186.638 166.425C186.643 166.539 186.672 166.652 186.723 166.755C186.775 166.859 186.849 166.951 186.94 167.028C187.031 167.104 187.137 167.162 187.253 167.199L209.814 174.908L210.055 174.96ZM215.45 157.637L209.5 172.933L188.675 165.813L194.625 150.517L215.45 157.637Z" fill="#505258"/>
<path d="M180.453 155.263C180.644 155.268 180.832 155.216 180.988 155.113C181.145 155.01 181.262 154.862 181.321 154.692C181.404 154.476 181.393 154.238 181.289 154.03C181.185 153.822 180.997 153.661 180.767 153.583L130.47 136.416C130.241 136.345 129.992 136.361 129.776 136.459C129.56 136.558 129.393 136.732 129.311 136.944C129.229 137.156 129.239 137.389 129.338 137.595C129.437 137.8 129.618 137.961 129.841 138.044L180.139 155.211L180.453 155.263Z" fill="#A3A3A3"/>
<path d="M183.032 177.892L205.604 185.598L199.028 202.527L176.456 194.821L183.032 177.892Z" fill="white"/>
<path d="M199.023 203.37C199.213 203.37 199.398 203.315 199.554 203.212C199.709 203.11 199.827 202.965 199.892 202.798L206.47 185.839C206.553 185.623 206.541 185.385 206.437 185.177C206.333 184.969 206.146 184.808 205.915 184.73L183.372 177.056C183.142 176.982 182.89 176.996 182.669 177.092C182.449 177.189 182.277 177.362 182.19 177.575L175.611 194.5C175.519 194.711 175.519 194.948 175.611 195.158C175.715 195.366 175.9 195.527 176.129 195.609L198.709 203.318C198.809 203.353 198.916 203.371 199.023 203.37ZM204.419 186.046L198.469 201.343L177.644 194.24L183.575 178.909L204.419 186.046Z" fill="#505258"/>
<path d="M169.421 183.673C169.612 183.676 169.798 183.622 169.954 183.519C170.11 183.417 170.228 183.27 170.29 183.102C170.368 182.885 170.354 182.649 170.251 182.443C170.147 182.236 169.963 182.075 169.735 181.993L119.438 164.826C119.21 164.755 118.961 164.771 118.745 164.869C118.528 164.968 118.362 165.141 118.28 165.354C118.198 165.566 118.208 165.799 118.307 166.005C118.406 166.21 118.586 166.371 118.81 166.454L169.107 183.621C169.208 183.657 169.314 183.674 169.421 183.673Z" fill="#A3A3A3"/>
<path d="M106.908 197.092L295.536 261.49L274.752 314.994L86.1248 250.596L106.908 197.092Z" fill="white"/>
<path d="M274.746 315.849C274.881 315.853 275.015 315.823 275.134 315.762C275.245 315.717 275.345 315.65 275.428 315.567C275.511 315.483 275.574 315.385 275.615 315.277L296.402 261.783C296.494 261.566 296.494 261.325 296.402 261.108C296.351 261.007 296.278 260.917 296.19 260.843C296.101 260.769 295.997 260.711 295.885 260.675L107.224 196.233C107.11 196.191 106.988 196.172 106.866 196.176C106.745 196.181 106.625 196.208 106.514 196.256C106.404 196.305 106.305 196.374 106.224 196.459C106.142 196.544 106.08 196.644 106.041 196.752L85.2533 250.281C85.1609 250.492 85.1609 250.728 85.2533 250.939C85.299 251.045 85.3691 251.141 85.4585 251.218C85.5479 251.296 85.6545 251.355 85.7707 251.39L274.432 315.762C274.53 315.81 274.636 315.839 274.746 315.849ZM294.351 262.061L274.192 313.943L87.2859 250.056L107.445 198.19L294.351 262.061Z" fill="#505258"/>
<path d="M291.063 273.84C291.308 273.879 291.559 273.826 291.762 273.691C291.965 273.556 292.102 273.351 292.143 273.121C292.185 272.892 292.128 272.656 291.984 272.466C291.84 272.276 291.622 272.147 291.377 272.108L102.771 207.7C102.657 207.661 102.536 207.642 102.414 207.646C102.292 207.651 102.173 207.677 102.062 207.725C101.951 207.772 101.852 207.839 101.769 207.923C101.686 208.007 101.621 208.105 101.579 208.211C101.537 208.318 101.517 208.432 101.521 208.546C101.526 208.66 101.554 208.772 101.605 208.876C101.655 208.98 101.727 209.073 101.816 209.151C101.905 209.229 102.01 209.289 102.124 209.329L290.748 273.788L291.063 273.84Z" fill="#505258"/>
<path d="M222.509 298.006C222.696 298.007 222.88 297.955 223.035 297.856C223.19 297.757 223.31 297.616 223.377 297.452L244.165 243.941C244.21 243.833 244.232 243.718 244.229 243.602C244.226 243.486 244.198 243.372 244.147 243.267C244.097 243.161 244.024 243.066 243.933 242.987C243.842 242.909 243.736 242.848 243.62 242.809C243.503 242.769 243.38 242.752 243.257 242.758C243.133 242.764 243.013 242.793 242.901 242.844C242.79 242.895 242.691 242.966 242.61 243.053C242.529 243.14 242.467 243.242 242.428 243.352L221.64 296.846C221.557 297.061 221.569 297.3 221.673 297.507C221.776 297.715 221.964 297.876 222.194 297.954C222.293 297.997 222.401 298.014 222.509 298.006Z" fill="#505258"/>
<path d="M143.774 324.892C144.019 324.931 144.27 324.877 144.473 324.742C144.676 324.607 144.813 324.402 144.855 324.173C144.896 323.943 144.839 323.707 144.695 323.517C144.551 323.327 144.333 323.198 144.088 323.159L67.9951 297.175C67.7667 297.104 67.5179 297.12 67.3016 297.218C67.0853 297.317 66.9185 297.49 66.8367 297.703C66.7549 297.915 66.7645 298.148 66.8635 298.354C66.9625 298.559 67.1431 298.72 67.3668 298.803L143.46 324.788L143.774 324.892Z" fill="#A3A3A3"/>
<path d="M268.279 332.479C268.524 332.518 268.776 332.464 268.978 332.33C269.181 332.195 269.318 331.99 269.36 331.76C269.402 331.531 269.344 331.295 269.2 331.105C269.057 330.915 268.838 330.786 268.593 330.747L79.895 266.391C79.7809 266.352 79.6596 266.333 79.538 266.337C79.4164 266.341 79.2968 266.368 79.1861 266.415C79.0755 266.463 78.9758 266.53 78.893 266.614C78.8101 266.697 78.7456 266.795 78.7032 266.902C78.6607 267.009 78.6411 267.123 78.6455 267.237C78.6499 267.351 78.6783 267.463 78.7289 267.567C78.7795 267.671 78.8514 267.764 78.9405 267.842C79.0296 267.919 79.1342 267.98 79.2482 268.02L267.965 332.427L268.279 332.479Z" fill="#A3A3A3"/>
<path d="M268.279 132.362L259.594 154.709L327.963 178.043L336.648 155.714C332.121 147.208 323.029 141.734 314.825 138.131C311.684 136.745 308.654 135.653 306.067 134.77L305.457 134.562C303.055 133.748 300.246 132.83 297.197 132.102H297.031C288.272 129.867 277.61 128.672 268.279 132.362Z" fill="#5369E8"/>
<path d="M295.146 136.277L293.483 159.352L293.003 166.108L294.536 166.627L298.805 161.153L313.31 142.531C307.8 139.256 301.607 137.124 295.146 136.277Z" fill="#505258"/>
<path d="M302.759 112.042C303.794 107.036 295.848 102.999 294.093 108.733C293.373 110.713 293.425 112.867 294.241 114.814C294.672 115.758 295.391 116.561 296.309 117.122C297.226 117.684 298.301 117.977 299.396 117.966" fill="white"/>
<path d="M299.156 118.798H299.525C299.649 118.789 299.77 118.758 299.881 118.705C299.992 118.652 300.09 118.579 300.171 118.491C300.252 118.402 300.313 118.3 300.351 118.189C300.389 118.078 300.404 117.961 300.394 117.845C300.375 117.609 300.258 117.39 300.067 117.234C299.877 117.079 299.629 116.999 299.378 117.014C298.476 117.014 297.596 116.764 296.846 116.295C296.096 115.826 295.511 115.16 295.165 114.381C294.451 112.655 294.399 110.751 295.017 108.993C295.719 106.706 297.363 106.724 298.287 106.914C299.427 107.196 300.417 107.859 301.07 108.778C301.724 109.697 301.996 110.809 301.835 111.903C301.808 112.017 301.806 112.135 301.829 112.25C301.852 112.364 301.899 112.474 301.969 112.571C302.038 112.668 302.127 112.751 302.231 112.815C302.335 112.879 302.452 112.922 302.574 112.943C302.824 112.989 303.083 112.939 303.295 112.806C303.506 112.673 303.652 112.467 303.701 112.232C303.959 110.688 303.593 109.109 302.673 107.804C301.754 106.5 300.348 105.565 298.731 105.182C298.133 105.04 297.51 105.014 296.901 105.106C296.292 105.198 295.71 105.407 295.19 105.718C294.67 106.03 294.225 106.439 293.88 106.919C293.536 107.398 293.3 107.939 293.187 108.508C292.432 110.671 292.517 113.015 293.428 115.125C293.919 116.18 294.716 117.083 295.729 117.733C296.742 118.382 297.93 118.751 299.156 118.798Z" fill="#505258"/>
<path d="M323.676 119.196C326.319 114.727 335.17 116.425 332.583 121.864C331.77 123.786 330.258 125.375 328.314 126.351C327.336 126.816 326.233 126.998 325.144 126.874C324.055 126.751 323.03 126.328 322.198 125.658" fill="white"/>
<path d="M325.653 127.806C326.696 127.806 327.725 127.587 328.665 127.165C330.815 126.095 332.491 124.346 333.396 122.228C333.702 121.727 333.895 121.172 333.962 120.597C334.029 120.023 333.969 119.442 333.785 118.89C333.601 118.339 333.297 117.829 332.893 117.393C332.489 116.957 331.993 116.603 331.437 116.355C329.936 115.669 328.214 115.535 326.613 115.981C325.012 116.427 323.647 117.42 322.789 118.763C322.667 118.97 322.637 119.214 322.706 119.441C322.775 119.669 322.938 119.861 323.159 119.976C323.379 120.091 323.639 120.119 323.882 120.054C324.125 119.989 324.33 119.836 324.452 119.629C325.068 118.684 326.035 117.984 327.167 117.665C328.298 117.345 329.516 117.428 330.587 117.897C330.916 118.043 331.208 118.253 331.444 118.512C331.68 118.772 331.854 119.076 331.955 119.403C332.057 119.731 332.083 120.075 332.031 120.412C331.98 120.75 331.853 121.074 331.659 121.362C330.924 123.083 329.58 124.514 327.852 125.415C327.048 125.8 326.141 125.954 325.244 125.858C324.347 125.763 323.5 125.422 322.808 124.878C322.628 124.712 322.386 124.619 322.133 124.619C321.881 124.619 321.638 124.712 321.459 124.878C321.283 125.044 321.184 125.268 321.184 125.502C321.184 125.736 321.283 125.96 321.459 126.126C322.566 127.183 324.073 127.787 325.653 127.806Z" fill="#505258"/>
<path d="M313.366 142.531C311.916 143.708 310.144 144.481 308.25 144.762C306.356 145.044 304.415 144.823 302.648 144.124C300.785 143.54 299.115 142.513 297.8 141.144C296.485 139.775 295.571 138.11 295.146 136.312L303.11 118.365L319.556 123.978L313.366 142.531Z" fill="white"/>
<path d="M306.769 145.701C309.451 145.732 312.045 144.81 314.031 143.12C314.138 143.016 314.22 142.892 314.271 142.756L320.461 124.237C320.532 124.019 320.51 123.784 320.4 123.58C320.29 123.377 320.1 123.221 319.87 123.146L303.48 117.533C303.249 117.452 302.994 117.457 302.767 117.547C302.54 117.638 302.358 117.806 302.26 118.018L294.241 135.931C294.203 136.09 294.203 136.256 294.241 136.416C294.689 138.376 295.675 140.193 297.1 141.688C298.526 143.182 300.343 144.303 302.371 144.939C303.779 145.43 305.267 145.688 306.769 145.701ZM312.516 141.994C311.199 142.997 309.616 143.645 307.936 143.868C306.256 144.091 304.543 143.88 302.981 143.258C301.313 142.733 299.813 141.823 298.618 140.612C297.424 139.402 296.573 137.929 296.144 136.329L303.646 119.456L318.429 124.497L312.516 141.994Z" fill="#505258"/>
<path d="M316.525 131.773C314.584 133.068 312.33 133.89 309.965 134.164C306.048 134.735 300.449 134.978 296.717 133.055L300.412 125.571C303.142 126.921 306.032 127.961 309.023 128.672C311.62 129.459 314.331 129.868 317.061 129.885C317.578 129.781 317.32 131.201 316.525 131.773Z" fill="#505258"/>
<path d="M304.588 135.428C306.445 135.42 308.298 135.281 310.132 135.012C312.648 134.724 315.044 133.842 317.098 132.449C317.54 132.122 317.875 131.686 318.064 131.19C318.254 130.694 318.29 130.157 318.17 129.642C318.093 129.428 317.942 129.244 317.741 129.119C317.541 128.993 317.301 128.934 317.061 128.949C314.431 128.934 311.819 128.537 309.319 127.771C306.362 127.109 303.502 126.114 300.8 124.809C300.569 124.723 300.311 124.723 300.08 124.809C299.96 124.847 299.85 124.908 299.758 124.989C299.665 125.069 299.592 125.168 299.544 125.277L295.848 132.743C295.748 132.942 295.733 133.169 295.805 133.378C295.877 133.587 296.031 133.763 296.236 133.869C298.843 135.018 301.71 135.553 304.588 135.428ZM316.266 130.682C316.194 130.84 316.087 130.981 315.952 131.097C314.134 132.3 312.026 133.062 309.818 133.315C307.489 133.644 301.854 134.233 297.918 132.656L300.8 126.749C303.366 127.905 306.054 128.805 308.82 129.434C311.234 130.149 313.737 130.569 316.266 130.682Z" fill="#505258"/>
<path d="M308.265 130.404L306.917 129.937C305.393 129.42 303.993 128.627 302.797 127.603C301.601 126.579 300.632 125.343 299.946 123.968C299.259 122.592 298.869 121.103 298.797 119.586C298.724 118.069 298.972 116.553 299.525 115.125L306.214 97.9236C310.645 96.0458 315.679 95.8543 320.257 97.3894C324.835 98.9245 328.598 102.066 330.753 106.152L324.083 123.475C323.53 124.904 322.682 126.217 321.588 127.338C320.493 128.46 319.174 129.368 317.705 130.012C316.236 130.655 314.647 131.021 313.027 131.088C311.407 131.156 309.789 130.923 308.265 130.404Z" fill="white"/>
<path d="M313.624 96.2432C311.056 96.1957 308.515 96.7494 306.233 97.8542L299.544 115.056C298.99 116.484 298.743 117.999 298.815 119.516C298.887 121.034 299.278 122.523 299.964 123.898C300.651 125.274 301.62 126.509 302.816 127.533C304.012 128.558 305.412 129.351 306.935 129.867L308.284 130.335C309.642 130.791 311.073 131.026 312.515 131.028C315.035 131.027 317.494 130.302 319.562 128.952C321.63 127.602 323.207 125.691 324.083 123.475L330.753 106.152C329.774 104.071 328.336 102.207 326.533 100.685C324.731 99.1617 322.604 98.0142 320.295 97.3172C318.161 96.5691 315.902 96.182 313.624 96.1739M313.624 94.4416C316.147 94.4437 318.65 94.8661 321.015 95.6888C323.593 96.4767 325.961 97.7713 327.962 99.4861C329.964 101.201 331.551 103.296 332.619 105.632C332.771 106.018 332.771 106.442 332.619 106.828L325.949 124.03C325.312 125.679 324.333 127.194 323.07 128.488C321.806 129.782 320.283 130.829 318.586 131.569C316.89 132.31 315.055 132.729 313.185 132.802C311.316 132.876 309.449 132.603 307.693 131.998L306.344 131.53C302.793 130.32 299.901 127.836 298.304 124.627C296.706 121.417 296.534 117.744 297.825 114.415L304.514 97.2306C304.657 96.8375 304.945 96.5055 305.327 96.2952C307.909 95.0327 310.786 94.3955 313.698 94.4416H313.624Z" fill="#505258"/>
<path d="M300.579 148.836L304.588 147.641L302.334 144.315L298.343 145.51L300.579 148.836Z" fill="white"/>
<path d="M293.483 159.369L293.003 166.125L294.536 166.645L298.805 161.17L302.001 148.403L302.112 147.97L302.186 147.693L300.135 147L300.006 147.26L299.784 147.641V147.658L293.483 159.369Z" fill="white"/>
<path d="M319.426 176.034C319.604 176.034 319.778 175.986 319.929 175.898C320.079 175.809 320.2 175.682 320.276 175.531L329.626 157.463C329.704 157.255 329.697 157.026 329.607 156.822C329.517 156.618 329.35 156.452 329.138 156.356C328.925 156.259 328.683 156.24 328.456 156.3C328.229 156.361 328.034 156.497 327.908 156.684L318.576 174.752C318.52 174.857 318.487 174.972 318.479 175.09C318.471 175.208 318.488 175.326 318.529 175.437C318.571 175.549 318.635 175.651 318.719 175.739C318.804 175.826 318.906 175.897 319.02 175.947C319.147 176.002 319.286 176.032 319.426 176.034Z" fill="#505258"/>
<path d="M268.094 158.503C268.308 158.508 268.517 158.443 268.685 158.32C268.853 158.197 268.971 158.022 269.018 157.827L274.266 138.356C274.292 138.139 274.233 137.921 274.1 137.742C273.967 137.562 273.77 137.434 273.544 137.382C273.318 137.329 273.08 137.354 272.873 137.454C272.666 137.553 272.504 137.72 272.418 137.923L267.17 157.394C267.14 157.509 267.134 157.628 267.153 157.745C267.172 157.862 267.215 157.975 267.28 158.076C267.345 158.177 267.431 158.266 267.533 158.336C267.634 158.406 267.75 158.457 267.872 158.485L268.094 158.503Z" fill="#505258"/>
<path d="M325.302 121.137C327.058 115.749 330.033 109.201 329.09 107.798C328.148 106.395 327.002 107.798 326.06 106.204C325.117 104.61 325.912 104.472 325.912 104.472C324.016 103.039 321.881 101.91 319.593 101.128C317.412 100.782 312.201 100.47 310.243 97.8716C310.243 97.8716 305.254 100.695 304.237 102.93C303.221 105.165 301.447 111.592 300.985 111.332C300.523 111.072 299.599 105.234 299.784 102.67C300.014 100.26 301.095 97.991 302.856 96.2215C304.616 94.452 306.955 93.2832 309.503 92.8998C309.503 92.8998 310.224 90.0588 317.745 90.7518C325.265 91.4447 331.714 96.1739 333.118 98.9456C334.691 102.941 334.936 107.29 333.821 111.418C332.73 114.502 331.474 114.467 331.474 114.467L325.302 121.137Z" fill="white"/>
<path d="M325.302 122.02C325.439 122.022 325.575 121.994 325.7 121.94C325.825 121.886 325.935 121.807 326.023 121.708L332.01 115.143C332.693 114.918 333.858 114.121 334.726 111.557C335.912 107.211 335.654 102.63 333.987 98.4259C332.416 95.3251 325.764 90.4573 317.837 89.7643C311.499 89.1927 309.466 90.9943 308.838 91.999C306.181 92.5023 303.77 93.7987 301.964 95.6942C300.159 97.5898 299.057 99.9825 298.823 102.514C298.823 103.9 299.193 111.349 300.505 112.059C300.64 112.119 300.789 112.151 300.939 112.151C301.089 112.151 301.237 112.119 301.373 112.059C302.038 111.817 302.297 111.28 303.664 107.174C304.182 105.632 304.718 104.039 305.124 103.172C306.423 101.441 308.106 99.9932 310.058 98.9283C312.22 100.938 316.026 101.44 318.391 101.752L319.445 101.908C321.337 102.527 323.105 103.44 324.674 104.61C324.624 105.313 324.819 106.012 325.228 106.602C325.437 107.02 325.773 107.369 326.194 107.607C326.615 107.845 327.103 107.959 327.593 107.936C328.037 107.936 328.111 107.936 328.296 108.231C328.665 109.028 327.095 113.324 326.041 116.165C325.469 117.724 324.877 119.318 324.397 120.842C324.331 121.037 324.34 121.247 324.421 121.436C324.501 121.626 324.65 121.783 324.84 121.881C324.98 121.963 325.138 122.01 325.302 122.02ZM331.345 113.358C331.227 113.362 331.111 113.393 331.008 113.447C330.906 113.501 330.818 113.578 330.753 113.67L327.741 116.979L327.852 116.685C329.792 111.384 330.772 108.56 329.903 107.243C329.682 106.876 329.356 106.573 328.96 106.371C328.565 106.169 328.117 106.075 327.667 106.1C327.205 106.1 327.132 106.1 326.91 105.684C326.766 105.456 326.654 105.212 326.577 104.957C326.712 104.827 326.808 104.665 326.854 104.489C326.883 104.326 326.865 104.159 326.804 104.004C326.742 103.849 326.639 103.712 326.503 103.606C324.483 102.098 322.201 100.926 319.759 100.141L318.65 99.985C316.359 99.6905 312.515 99.1708 311.019 97.2479C310.881 97.0663 310.674 96.9403 310.441 96.8953C310.208 96.8503 309.966 96.8897 309.762 97.0054C309.208 97.2999 304.477 100.037 303.369 102.462C302.944 103.415 302.389 105.061 301.854 106.637C301.65 107.226 301.429 107.884 301.207 108.508C300.867 106.544 300.706 104.556 300.726 102.566C300.939 100.351 301.935 98.2653 303.555 96.6399C305.175 95.0146 307.327 93.9423 309.67 93.5928C309.853 93.5628 310.023 93.4827 310.158 93.3625C310.292 93.2423 310.386 93.0873 310.427 92.9172C310.427 92.9172 311.277 90.873 317.652 91.462C325.044 92.1376 331.086 96.8322 332.25 99.1708C333.728 102.945 333.966 107.048 332.934 110.951C332.139 113.168 331.363 113.41 331.363 113.41L331.345 113.358Z" fill="#505258"/>
<path d="M188.047 51.5321C189.129 51.5297 190.184 51.2161 191.069 50.6337C191.955 50.0513 192.629 49.2281 192.999 48.2754L201.37 26.708C201.414 26.6024 201.435 26.4895 201.432 26.3761C201.429 26.2626 201.402 26.1509 201.352 26.0476C201.302 25.9442 201.23 25.8513 201.141 25.7743C201.052 25.6973 200.948 25.6378 200.834 25.5993C200.601 25.5253 200.346 25.5379 200.123 25.6346C199.899 25.7313 199.724 25.9047 199.633 26.119L191.262 47.6864C190.934 48.4574 190.298 49.0788 189.491 49.4196C188.683 49.7603 187.766 49.7939 186.932 49.5132C186.099 49.2325 185.414 48.6594 185.022 47.9148C184.63 47.1701 184.562 46.3119 184.832 45.521L196.972 14.3393C197.555 12.8497 198.743 11.6367 200.277 10.965C201.81 10.2932 203.565 10.2172 205.158 10.7534C205.95 11.0203 206.677 11.4315 207.299 11.9633C207.92 12.4952 208.424 13.1371 208.779 13.8522C209.135 14.5672 209.336 15.3412 209.371 16.1294C209.406 16.9177 209.274 17.7046 208.983 18.4449L208.521 19.6402C208.438 19.8561 208.449 20.0942 208.553 20.3021C208.657 20.51 208.845 20.6707 209.075 20.7489C209.189 20.7899 209.31 20.809 209.432 20.8049C209.554 20.8009 209.674 20.7737 209.785 20.7252C209.895 20.6767 209.994 20.6077 210.075 20.5225C210.156 20.4372 210.219 20.3375 210.258 20.2292L210.72 19.0339C211.277 17.5989 211.368 16.0413 210.981 14.5579C210.594 13.0745 209.747 11.7318 208.547 10.6993C207.347 9.66689 205.847 8.99101 204.238 8.75705C202.628 8.5231 200.981 8.74156 199.503 9.38485C198.52 9.81198 197.636 10.4177 196.903 11.167C196.17 11.9163 195.604 12.7943 195.235 13.7503L183.095 44.932C182.812 45.6786 182.724 46.4778 182.837 47.263C182.951 48.0481 183.263 48.7964 183.747 49.4456C184.232 50.0948 184.875 50.626 185.623 50.9949C186.371 51.3639 187.202 51.56 188.047 51.5668V51.5321Z" fill="#505258"/>
<path d="M354.572 304.693C344.464 289.102 331.437 265.144 322.956 248.791C318.798 240.77 303.48 245.222 302.371 252.03C300.837 261.558 318.724 310.617 318.835 310.496C311.979 318.414 307.759 328.047 306.701 338.197C305.643 348.347 307.794 358.564 312.885 367.576" fill="white"/>
<path d="M312.885 368.459C313.042 368.46 313.196 368.418 313.328 368.338C313.436 368.284 313.53 368.21 313.606 368.121C313.682 368.032 313.738 367.929 313.771 367.819C313.804 367.709 313.813 367.594 313.797 367.481C313.781 367.368 313.741 367.259 313.679 367.16C308.725 358.287 306.642 348.251 307.686 338.283C308.73 328.316 312.855 318.851 319.555 311.05C319.66 310.932 319.729 310.789 319.755 310.636C319.781 310.484 319.763 310.328 319.703 310.184V310.063C318.687 307.811 301.89 261.125 303.35 252.169C303.849 249.12 308.007 246.193 312.848 245.5C317.172 244.893 320.664 246.262 322.179 249.172C326.559 257.591 341.766 286.556 353.832 305.143C353.896 305.24 353.98 305.324 354.079 305.39C354.178 305.457 354.29 305.504 354.408 305.53C354.527 305.556 354.65 305.559 354.769 305.541C354.889 305.522 355.004 305.481 355.107 305.42C355.211 305.363 355.302 305.287 355.375 305.197C355.447 305.106 355.499 305.003 355.529 304.893C355.558 304.784 355.564 304.67 355.545 304.558C355.527 304.446 355.485 304.339 355.421 304.243C343.392 285.724 328.203 256.829 323.842 248.41C321.994 244.772 317.745 243.04 312.571 243.785C307.748 244.478 302.223 247.561 301.484 251.909C300.153 260.12 314.418 303.168 317.837 310.288C310.945 318.32 306.726 328.075 305.704 338.338C304.682 348.602 306.903 358.92 312.09 368.009C312.17 368.142 312.285 368.253 312.424 368.332C312.563 368.411 312.722 368.455 312.885 368.459Z" fill="#505258"/>
<path d="M300.265 395.813C298.05 395.813 296.255 394.13 296.255 392.054C296.255 389.978 298.05 388.294 300.265 388.294C302.479 388.294 304.274 389.978 304.274 392.054C304.274 394.13 302.479 395.813 300.265 395.813Z" fill="#505258"/>
</svg>
