<svg width="760" height="147" viewBox="0 0 760 147" fill="none" xmlns="http://www.w3.org/2000/svg">
<path fill-rule="evenodd" clip-rule="evenodd" d="M-40 0L-13.3333 24C13.3333 48 66.6667 96 120 120C173.333 144 226.667 144 280 124C333.333 104 386.667 64 440 60C493.333 56 546.667 88 600 88C653.333 88 706.667 56 733.333 40L760 24V163H733.333C706.667 163 653.333 163 600 163C546.667 163 493.333 163 440 163C386.667 163 333.333 163 280 163C226.667 163 173.333 163 120 163C66.6667 163 13.3333 163 -13.3333 163H-40V0Z" fill="#647BFE"/>
</svg>
