<svg width="12" height="11" viewBox="0 0 12 11" fill="none" xmlns="http://www.w3.org/2000/svg">
<path d="M6.67982 1.05101C6.84056 0.89032 7.05854 0.800049 7.28583 0.800049C7.51311 0.800049 7.73109 0.89032 7.89183 1.05101L11.749 4.90821C11.9097 5.06895 12 5.28694 12 5.51422C12 5.74151 11.9097 5.95949 11.749 6.12023L7.89183 9.97743C7.73017 10.1336 7.51365 10.22 7.28891 10.218C7.06417 10.2161 6.84918 10.1259 6.69026 9.96699C6.53133 9.80807 6.44119 9.59308 6.43923 9.36834C6.43728 9.1436 6.52368 8.92708 6.67982 8.76542L9.00014 6.37138H0.857156C0.629824 6.37138 0.411803 6.28107 0.251055 6.12032C0.0903073 5.95958 0 5.74156 0 5.51422C0 5.28689 0.0903073 5.06887 0.251055 4.90812C0.411803 4.74737 0.629824 4.65707 0.857156 4.65707H9.00014L6.67982 2.26303C6.51912 2.10229 6.42885 1.88431 6.42885 1.65702C6.42885 1.42973 6.51912 1.21175 6.67982 1.05101Z" fill="#505258"/>
</svg>
