<svg width="20" height="20" viewBox="0 0 20 20" fill="none" xmlns="http://www.w3.org/2000/svg">
<path d="M8.8011 0.492592L0.474631 8.81906C0.323022 8.97744 0.204178 9.16419 0.12492 9.36861C-0.0416399 9.77404 -0.0416399 10.2288 0.12492 10.6342C0.204178 10.8386 0.323022 11.0254 0.474631 11.1838L8.8011 19.5103C8.95637 19.6655 9.1407 19.7887 9.34357 19.8727C9.54644 19.9567 9.76388 20 9.98346 20C10.4269 20 10.8522 19.8238 11.1658 19.5103C11.4794 19.1967 11.6556 18.7714 11.6556 18.3279C11.6556 17.8844 11.4794 17.4591 11.1658 17.1455L5.67035 11.6667L18.3099 11.6667C18.7516 11.6667 19.1752 11.4913 19.4875 11.179C19.7998 10.8667 19.9752 10.4431 19.9752 10.0014C19.9752 9.55976 19.7998 9.13618 19.4875 8.82388C19.1752 8.51158 18.7516 8.33613 18.3099 8.33613L5.67035 8.33613L11.1658 2.85731C11.3219 2.7025 11.4458 2.51832 11.5303 2.31538C11.6149 2.11245 11.6584 1.89479 11.6584 1.67495C11.6584 1.45511 11.6149 1.23745 11.5303 1.03452C11.4458 0.831583 11.3219 0.647402 11.1658 0.492592C11.011 0.336506 10.8268 0.212616 10.6239 0.128071C10.421 0.0435257 10.2033 0 9.98346 0C9.76362 0 9.54596 0.0435257 9.34303 0.128071C9.1401 0.212616 8.95591 0.336506 8.8011 0.492592Z" fill="#505258"/>
</svg>
