<svg width="30" height="36" viewBox="0 0 30 36" fill="none" xmlns="http://www.w3.org/2000/svg">
<path d="M28.5332 7.92536L15.9585 1.04499C15.6225 0.859341 15.2449 0.761963 14.861 0.761963C14.4772 0.761963 14.0996 0.859341 13.7636 1.04499L1.18888 7.92822C0.829772 8.12471 0.530001 8.414 0.320872 8.7659C0.111744 9.1178 0.000929183 9.51939 0 9.92874V23.5952C0.000929183 24.0045 0.111744 24.4061 0.320872 24.758C0.530001 25.1099 0.829772 25.3992 1.18888 25.5957L13.7636 32.4789C14.0996 32.6646 14.4772 32.762 14.861 32.762C15.2449 32.762 15.6225 32.6646 15.9585 32.4789L28.5332 25.5957C28.8923 25.3992 29.1921 25.1099 29.4012 24.758C29.6103 24.4061 29.7211 24.0045 29.7221 23.5952V9.93017C29.7219 9.52009 29.6115 9.11761 29.4023 8.76489C29.1931 8.41217 28.8929 8.1222 28.5332 7.92536ZM14.861 3.04551L26.3412 9.33287L22.0872 11.6621L10.6056 5.37469L14.861 3.04551ZM14.861 15.6202L3.38089 9.33287L8.22501 6.68075L19.7052 12.9681L14.861 15.6202ZM2.28631 11.3334L13.7179 17.5893V29.8483L2.28631 23.5966V11.3334ZM27.4358 23.5909L16.0042 29.8483V17.595L20.5768 15.093V20.1929C20.5768 20.496 20.6973 20.7868 20.9116 21.0012C21.126 21.2156 21.4168 21.336 21.72 21.336C22.0232 21.336 22.3139 21.2156 22.5283 21.0012C22.7427 20.7868 22.8631 20.496 22.8631 20.1929V13.8412L27.4358 11.3334V23.5895V23.5909Z" fill="black"/>
<path opacity="0.2" d="M14.8611 17.9192V32.6245C14.6691 32.6237 14.4804 32.5745 14.3124 32.4816L1.73766 25.5969C1.55811 25.4987 1.40822 25.354 1.30366 25.1781C1.19909 25.0021 1.14368 24.8013 1.14322 24.5967V10.9302C1.14367 10.7701 1.17775 10.6119 1.24325 10.4658L14.8611 17.9192Z" fill="black"/>
</svg>
