<svg width="31" height="36" viewBox="0 0 31 36" fill="none" xmlns="http://www.w3.org/2000/svg">
<path d="M8.85713 0C10.0819 0 11.0714 0.989509 11.0714 2.21429V4.42857H19.9286V2.21429C19.9286 0.989509 20.9181 0 22.1428 0C23.3676 0 24.3571 0.989509 24.3571 2.21429V4.42857H27.6786C29.5123 4.42857 31 5.91629 31 7.75V11.0714H-1.52588e-05V7.75C-1.52588e-05 5.91629 1.48771 4.42857 3.32141 4.42857H6.64284V2.21429C6.64284 0.989509 7.63235 0 8.85713 0ZM-1.52588e-05 13.2857H31V32.1071C31 33.9408 29.5123 35.4286 27.6786 35.4286H3.32141C1.48771 35.4286 -1.52588e-05 33.9408 -1.52588e-05 32.1071V13.2857ZM4.42856 18.8214V21.0357C4.42856 21.6446 4.92677 22.1429 5.5357 22.1429H7.74999C8.35891 22.1429 8.85713 21.6446 8.85713 21.0357V18.8214C8.85713 18.2125 8.35891 17.7143 7.74999 17.7143H5.5357C4.92677 17.7143 4.42856 18.2125 4.42856 18.8214ZM13.2857 18.8214V21.0357C13.2857 21.6446 13.7839 22.1429 14.3928 22.1429H16.6071C17.2161 22.1429 17.7143 21.6446 17.7143 21.0357V18.8214C17.7143 18.2125 17.2161 17.7143 16.6071 17.7143H14.3928C13.7839 17.7143 13.2857 18.2125 13.2857 18.8214ZM23.25 17.7143C22.6411 17.7143 22.1428 18.2125 22.1428 18.8214V21.0357C22.1428 21.6446 22.6411 22.1429 23.25 22.1429H25.4643C26.0732 22.1429 26.5714 21.6446 26.5714 21.0357V18.8214C26.5714 18.2125 26.0732 17.7143 25.4643 17.7143H23.25ZM4.42856 27.6786V29.8929C4.42856 30.5018 4.92677 31 5.5357 31H7.74999C8.35891 31 8.85713 30.5018 8.85713 29.8929V27.6786C8.85713 27.0696 8.35891 26.5714 7.74999 26.5714H5.5357C4.92677 26.5714 4.42856 27.0696 4.42856 27.6786ZM14.3928 26.5714C13.7839 26.5714 13.2857 27.0696 13.2857 27.6786V29.8929C13.2857 30.5018 13.7839 31 14.3928 31H16.6071C17.2161 31 17.7143 30.5018 17.7143 29.8929V27.6786C17.7143 27.0696 17.2161 26.5714 16.6071 26.5714H14.3928ZM22.1428 27.6786V29.8929C22.1428 30.5018 22.6411 31 23.25 31H25.4643C26.0732 31 26.5714 30.5018 26.5714 29.8929V27.6786C26.5714 27.0696 26.0732 26.5714 25.4643 26.5714H23.25C22.6411 26.5714 22.1428 27.0696 22.1428 27.6786Z" fill="white"/>
</svg>
