<svg width="21" height="19" viewBox="0 0 21 19" fill="none" xmlns="http://www.w3.org/2000/svg">
<path d="M2.16683 2.16665H5.29183L7.37516 0.083313H13.6252L15.7085 2.16665H18.8335C19.386 2.16665 19.9159 2.38614 20.3066 2.77684C20.6973 3.16754 20.9168 3.69745 20.9168 4.24998V16.75C20.9168 17.3025 20.6973 17.8324 20.3066 18.2231C19.9159 18.6138 19.386 18.8333 18.8335 18.8333H2.16683C1.6143 18.8333 1.08439 18.6138 0.69369 18.2231C0.302989 17.8324 0.0834961 17.3025 0.0834961 16.75V4.24998C0.0834961 3.69745 0.302989 3.16754 0.69369 2.77684C1.08439 2.38614 1.6143 2.16665 2.16683 2.16665ZM10.5002 5.29165C9.11883 5.29165 7.79407 5.84038 6.81732 6.81713C5.84056 7.79388 5.29183 9.11864 5.29183 10.5C5.29183 11.8813 5.84056 13.2061 6.81732 14.1828C7.79407 15.1596 9.11883 15.7083 10.5002 15.7083C11.8815 15.7083 13.2063 15.1596 14.183 14.1828C15.1598 13.2061 15.7085 11.8813 15.7085 10.5C15.7085 9.11864 15.1598 7.79388 14.183 6.81713C13.2063 5.84038 11.8815 5.29165 10.5002 5.29165ZM10.5002 7.37498C11.329 7.37498 12.1238 7.70422 12.7099 8.29027C13.2959 8.87632 13.6252 9.67118 13.6252 10.5C13.6252 11.3288 13.2959 12.1236 12.7099 12.7097C12.1238 13.2957 11.329 13.625 10.5002 13.625C9.67136 13.625 8.87651 13.2957 8.29045 12.7097C7.7044 12.1236 7.37516 11.3288 7.37516 10.5C7.37516 9.67118 7.7044 8.87632 8.29045 8.29027C8.87651 7.70422 9.67136 7.37498 10.5002 7.37498Z" fill="white"/>
</svg>
