<?xml version="1.0" encoding="utf-8"?>
<svg id="master-artboard" viewBox="0 0 1400 980" version="1.1" xmlns="http://www.w3.org/2000/svg" x="0px" y="0px" style="enable-background:new 0 0 336 235.2;" width="1400px" height="980px"><rect id="ee-background" x="0" y="0" width="1400" height="980" style="fill: white; fill-opacity: 0; pointer-events: none;"/><g transform="matrix(70, 0, 0, 70, 0.000014606073818868026, 69.99999867137444)"><path d="M10.6231 11.3847L19.7623 1.79274C19.9149 1.63269 20 1.42006 20 1.19894C20 0.977826 19.9149 0.765196 19.7623 0.605149L19.752 0.594822C19.678 0.516966 19.589 0.454971 19.4903 0.412607C19.3916 0.370244 19.2854 0.348397 19.178 0.348397C19.0706 0.348397 18.9643 0.370244 18.8657 0.412607C18.767 0.454971 18.678 0.516966 18.604 0.594822L9.99828 9.62738L1.39601 0.594822C1.32205 0.516966 1.23302 0.454971 1.13434 0.412607C1.03566 0.370244 0.929398 0.348397 0.82201 0.348397C0.714622 0.348397 0.608358 0.370244 0.50968 0.412607C0.411001 0.454971 0.321974 0.516966 0.248011 0.594822L0.237682 0.605149C0.0851116 0.765196 0 0.977826 0 1.19894C0 1.42006 0.0851116 1.63269 0.237682 1.79274L9.37695 11.3847C9.45732 11.469 9.55398 11.5362 9.66108 11.5821C9.76818 11.628 9.88348 11.6516 10 11.6516C10.1165 11.6516 10.2318 11.628 10.3389 11.5821C10.446 11.5362 10.5427 11.469 10.6231 11.3847Z" fill="#505258" style="fill: rgb(163, 163, 163);"/></g></svg>