<svg width="240" height="201" viewBox="0 0 240 201" fill="none" xmlns="http://www.w3.org/2000/svg">
<path d="M232 94H207.7C205.658 67.1696 193.296 45.175 173.212 27.2677C153.128 9.36037 126.885 -0.0656928 99.9972 0.969957C73.1091 2.00561 47.669 13.4223 29.0219 32.8215C10.3749 52.2206 -0.0276434 78.092 5.51725e-05 105V129C0.02123 148.089 7.61372 166.39 21.1118 179.888C34.6098 193.386 52.911 200.979 72.0001 201H112C131.089 200.979 149.39 193.386 162.888 179.888C176.386 166.39 183.979 148.089 184 129V113H232C234.122 113 236.157 112.157 237.657 110.657C239.157 109.157 240 106.122 240 104C240 101.878 239.157 97.8434 237.657 96.3431C236.157 94.8428 234.122 94 232 94ZM72.0001 157C67.2533 157 62.6131 155.592 58.6664 152.955C54.7196 150.318 51.6434 146.57 49.8269 142.184C48.0104 137.799 47.5352 132.973 48.4612 128.318C49.3872 123.662 51.673 119.386 55.0295 116.029C58.3859 112.673 62.6623 110.387 67.3179 109.461C71.9734 108.535 76.799 109.01 81.1845 110.827C85.5699 112.643 89.3182 115.719 91.9553 119.666C94.5925 123.613 96.0001 128.253 96.0001 133C96.0001 139.365 93.4715 145.47 88.9706 149.971C84.4697 154.471 78.3652 157 72.0001 157ZM167 129C166.985 142.888 161.816 156.277 152.493 166.571C143.171 176.865 131.359 183.333 117.54 184.72C125.81 177.979 132.475 169.481 137.052 159.843C141.629 150.205 144.002 139.669 144 129V113H167V129Z" fill="black"/>
</svg>
