<svg width="12" height="15" viewBox="0 0 12 15" fill="none" xmlns="http://www.w3.org/2000/svg">
<path d="M6 4.21802C5.36348 4.21802 4.75303 4.42873 4.30294 4.8038C3.85286 5.17888 3.6 5.68758 3.6 6.21802C3.6 6.74845 3.85286 7.25716 4.30294 7.63223C4.75303 8.0073 5.36348 8.21802 6 8.21802C6.63652 8.21802 7.24697 8.0073 7.69706 7.63223C8.14714 7.25716 8.4 6.74845 8.4 6.21802C8.4 5.68758 8.14714 5.17888 7.69706 4.8038C7.24697 4.42873 6.63652 4.21802 6 4.21802ZM3.234 9.21802C2.8368 9.21802 2.406 9.45602 2.37 9.87502C2.3424 10.19 2.376 10.797 2.922 11.328C3.4752 11.868 4.4448 12.218 6 12.218C7.5552 12.218 8.5248 11.868 9.0792 11.328C9.624 10.797 9.6576 10.19 9.6312 9.87502C9.5952 9.45502 9.1632 9.21802 8.766 9.21802H3.234ZM9.498 1.21802H10.2C10.6774 1.21802 11.1352 1.37605 11.4728 1.65736C11.8104 1.93866 12 2.32019 12 2.71802V12.718C12 13.1158 11.8104 13.4974 11.4728 13.7787C11.1352 14.06 10.6774 14.218 10.2 14.218H1.8C1.32261 14.218 0.864773 14.06 0.527208 13.7787C0.189642 13.4974 0 13.1158 0 12.718V2.71802C0 2.32019 0.189642 1.93866 0.527208 1.65736C0.864773 1.37605 1.32261 1.21802 1.8 1.21802H2.502C2.62613 0.92544 2.8561 0.672146 3.16021 0.493046C3.46432 0.313945 3.82761 0.217855 4.2 0.218018H7.8C8.17239 0.217855 8.53568 0.313945 8.83979 0.493046C9.1439 0.672146 9.37387 0.92544 9.498 1.21802ZM2.502 2.21802H1.8C1.64087 2.21802 1.48826 2.2707 1.37574 2.36446C1.26321 2.45823 1.2 2.58541 1.2 2.71802V12.718C1.2 12.8506 1.26321 12.9778 1.37574 13.0716C1.48826 13.1653 1.64087 13.218 1.8 13.218H10.2C10.3591 13.218 10.5117 13.1653 10.6243 13.0716C10.7368 12.9778 10.8 12.8506 10.8 12.718V2.71802C10.8 2.58541 10.7368 2.45823 10.6243 2.36446C10.5117 2.2707 10.3591 2.21802 10.2 2.21802H9.498C9.37387 2.5106 9.1439 2.76389 8.83979 2.94299C8.53568 3.12209 8.17239 3.21818 7.8 3.21802H4.2C3.82761 3.21818 3.46432 3.12209 3.16021 2.94299C2.8561 2.76389 2.62613 2.5106 2.502 2.21802ZM3.6 1.71802C3.6 1.85063 3.66321 1.9778 3.77574 2.07157C3.88826 2.16534 4.04087 2.21802 4.2 2.21802H7.8C7.95913 2.21802 8.11174 2.16534 8.22427 2.07157C8.33679 1.9778 8.4 1.85063 8.4 1.71802C8.4 1.58541 8.33679 1.45823 8.22427 1.36446C8.11174 1.2707 7.95913 1.21802 7.8 1.21802H4.2C4.04087 1.21802 3.88826 1.2707 3.77574 1.36446C3.66321 1.45823 3.6 1.58541 3.6 1.71802Z" fill="black"/>
</svg>
