<svg id="efmWs8rgBRt1" xmlns="http://www.w3.org/2000/svg" xmlns:xlink="http://www.w3.org/1999/xlink" viewBox="0 0 0.888889 0.888889" shape-rendering="geometricPrecision" text-rendering="geometricPrecision"><path d="M320,400c-75.85,0-137.25-58.71-142.9-133.11L72.2,185.82c-13.79,17.3-26.48,35.59-36.72,55.59-4.639271,9.176998-4.639271,20.013002,0,29.19C89.71,376.41,197.07,448,320,448c26.91,0,52.87-4,77.89-10.46L346,397.39c-8.569761,1.655456-17.272183,2.529046-26,2.61Zm313.82,58.1L523.27,372.66c33.581708-28.300934,61.200593-62.997053,81.25-102.07c4.639271-9.176998,4.639271-20.013002,0-29.19C550.29,135.59,442.93,64,320,64c-51.485002.062388-102.133833,13.023703-147.32,37.7L45.46,3.37c-3.350474-2.607161-7.599744-3.775884-11.81225-3.248852s-8.042865,2.706608-10.64775,6.058852L3.37,31.45c-5.422523,6.975607-4.164533,17.026096,2.81,22.45L594.54,508.63c3.350474,2.607161,7.599744,3.775884,11.81225,3.248852s8.042865-2.706608,10.64775-6.058852l19.64-25.27c5.420269-6.978229,4.157752-17.029117-2.82-22.45ZM450.1,316.1l-39.3-30.38c3.309634-9.565329,5.06522-19.599179,5.2-29.72.395713-30.04811-13.484542-58.502847-37.408417-76.687832s-55.055248-23.944428-83.901583-15.522168c6.030108,8.171014,9.292014,18.054837,9.31,28.21-.149185,3.379316-.665556,6.732374-1.54,10l-73.61-56.89C254.41982,123.742062,286.677277,112.024624,320,112c38.197682-.021239,74.836986,15.143326,101.84683,42.15317s42.174409,63.649148,42.15317,101.84683c0,21.63-5.29,41.79-13.9,60.11v-.01Z" fill="#505258"/></svg>
