<svg width="114" height="36" viewBox="0 0 114 36" fill="none" xmlns="http://www.w3.org/2000/svg">
<rect width="114" height="36" rx="8" fill="white"/>
<path d="M19.4565 8H14.6739C14.0974 8 13.5444 8.22904 13.1367 8.63672C12.729 9.04441 12.5 9.59736 12.5 10.1739V14.9565C12.5 15.5331 12.729 16.086 13.1367 16.4937C13.5444 16.9014 14.0974 17.1304 14.6739 17.1304H19.4565C20.0331 17.1304 20.586 16.9014 20.9937 16.4937C21.4014 16.086 21.6304 15.5331 21.6304 14.9565V10.1739C21.6304 9.59736 21.4014 9.04441 20.9937 8.63672C20.586 8.22904 20.0331 8 19.4565 8ZM19.0217 14.5217H15.1087V10.6087H19.0217V14.5217ZM19.4565 18.8696H14.6739C14.0974 18.8696 13.5444 19.0986 13.1367 19.5063C12.729 19.914 12.5 20.4669 12.5 21.0435V25.8261C12.5 26.4026 12.729 26.9556 13.1367 27.3633C13.5444 27.771 14.0974 28 14.6739 28H19.4565C20.0331 28 20.586 27.771 20.9937 27.3633C21.4014 26.9556 21.6304 26.4026 21.6304 25.8261V21.0435C21.6304 20.4669 21.4014 19.914 20.9937 19.5063C20.586 19.0986 20.0331 18.8696 19.4565 18.8696ZM19.0217 25.3913H15.1087V21.4783H19.0217V25.3913ZM30.3261 8H25.5435C24.9669 8 24.414 8.22904 24.0063 8.63672C23.5986 9.04441 23.3696 9.59736 23.3696 10.1739V14.9565C23.3696 15.5331 23.5986 16.086 24.0063 16.4937C24.414 16.9014 24.9669 17.1304 25.5435 17.1304H30.3261C30.9026 17.1304 31.4556 16.9014 31.8633 16.4937C32.271 16.086 32.5 15.5331 32.5 14.9565V10.1739C32.5 9.59736 32.271 9.04441 31.8633 8.63672C31.4556 8.22904 30.9026 8 30.3261 8ZM29.8913 14.5217H25.9783V10.6087H29.8913V14.5217ZM23.3696 22.7826V20.1739C23.3696 19.828 23.507 19.4962 23.7516 19.2516C23.9962 19.007 24.328 18.8696 24.6739 18.8696C25.0198 18.8696 25.3516 19.007 25.5962 19.2516C25.8408 19.4962 25.9783 19.828 25.9783 20.1739V22.7826C25.9783 23.1285 25.8408 23.4603 25.5962 23.7049C25.3516 23.9495 25.0198 24.087 24.6739 24.087C24.328 24.087 23.9962 23.9495 23.7516 23.7049C23.507 23.4603 23.3696 23.1285 23.3696 22.7826ZM32.5 21.913C32.5 22.259 32.3626 22.5907 32.118 22.8354C31.8734 23.08 31.5416 23.2174 31.1957 23.2174H29.8913V26.6957C29.8913 27.0416 29.7539 27.3734 29.5093 27.618C29.2647 27.8626 28.9329 28 28.587 28H24.6739C24.328 28 23.9962 27.8626 23.7516 27.618C23.507 27.3734 23.3696 27.0416 23.3696 26.6957C23.3696 26.3497 23.507 26.018 23.7516 25.7733C23.9962 25.5287 24.328 25.3913 24.6739 25.3913H27.2826V20.1739C27.2826 19.828 27.42 19.4962 27.6646 19.2516C27.9093 19.007 28.241 18.8696 28.587 18.8696C28.9329 18.8696 29.2647 19.007 29.5093 19.2516C29.7539 19.4962 29.8913 19.828 29.8913 20.1739V20.6087H31.1957C31.5416 20.6087 31.8734 20.7461 32.118 20.9907C32.3626 21.2353 32.5 21.5671 32.5 21.913Z" fill="#5C5C5C"/>
<path d="M46.3622 20.1989H47.8736L48.9375 21.5859L49.4396 22.2024L51.1349 24.4148H49.5639L48.4304 22.9382L48.0426 22.4013L46.3622 20.1989ZM51.4631 18.4091C51.4631 19.4962 51.2642 20.4309 50.8665 21.2131C50.4688 21.992 49.9235 22.5919 49.2308 23.0128C48.5414 23.4304 47.7576 23.6392 46.8793 23.6392C45.9976 23.6392 45.2105 23.4304 44.5178 23.0128C43.8284 22.5919 43.2848 21.9903 42.8871 21.2081C42.4893 20.4259 42.2905 19.4929 42.2905 18.4091C42.2905 17.322 42.4893 16.389 42.8871 15.6101C43.2848 14.8279 43.8284 14.228 44.5178 13.8104C45.2105 13.3894 45.9976 13.179 46.8793 13.179C47.7576 13.179 48.5414 13.3894 49.2308 13.8104C49.9235 14.228 50.4688 14.8279 50.8665 15.6101C51.2642 16.389 51.4631 17.322 51.4631 18.4091ZM49.9418 18.4091C49.9418 17.5805 49.8075 16.8828 49.5391 16.3161C49.2739 15.746 48.9093 15.3151 48.4453 15.0234C47.9846 14.7285 47.4626 14.581 46.8793 14.581C46.2926 14.581 45.7689 14.7285 45.3082 15.0234C44.8475 15.3151 44.483 15.746 44.2145 16.3161C43.9493 16.8828 43.8168 17.5805 43.8168 18.4091C43.8168 19.2377 43.9493 19.937 44.2145 20.5071C44.483 21.0739 44.8475 21.5047 45.3082 21.7997C45.7689 22.0914 46.2926 22.2372 46.8793 22.2372C47.4626 22.2372 47.9846 22.0914 48.4453 21.7997C48.9093 21.5047 49.2739 21.0739 49.5391 20.5071C49.8075 19.937 49.9418 19.2377 49.9418 18.4091ZM53.3784 23.5V13.3182H57.0076C57.7965 13.3182 58.4511 13.4541 58.9714 13.7259C59.4951 13.9976 59.8862 14.3738 60.1447 14.8544C60.4032 15.3317 60.5325 15.8835 60.5325 16.5099C60.5325 17.133 60.4016 17.6816 60.1397 18.1555C59.8812 18.6262 59.4901 18.9924 58.9664 19.2543C58.4461 19.5161 57.7915 19.647 57.0027 19.647H54.2534V18.3246H56.8635C57.3606 18.3246 57.765 18.2533 58.0765 18.1108C58.3914 17.9683 58.6217 17.7611 58.7676 17.4893C58.9134 17.2176 58.9863 16.8911 58.9863 16.5099C58.9863 16.1255 58.9118 15.7924 58.7626 15.5107C58.6168 15.2289 58.3864 15.0135 58.0716 14.8643C57.76 14.7119 57.3507 14.6357 56.8436 14.6357H54.9146V23.5H53.3784ZM58.4047 18.9062L60.9203 23.5H59.1703L56.7044 18.9062H58.4047ZM74.5636 16.6293H73.0124C72.9528 16.2978 72.8417 16.0062 72.6793 15.7543C72.5169 15.5024 72.3181 15.2886 72.0827 15.1129C71.8474 14.9373 71.5839 14.8047 71.2923 14.7152C71.0039 14.6257 70.6973 14.581 70.3725 14.581C69.7859 14.581 69.2605 14.7285 68.7965 15.0234C68.3358 15.3184 67.9712 15.7509 67.7028 16.321C67.4376 16.8911 67.305 17.5871 67.305 18.4091C67.305 19.2377 67.4376 19.937 67.7028 20.5071C67.9712 21.0772 68.3375 21.508 68.8015 21.7997C69.2655 22.0914 69.7875 22.2372 70.3675 22.2372C70.689 22.2372 70.994 22.1941 71.2823 22.108C71.574 22.0185 71.8375 21.8875 72.0728 21.7152C72.3081 21.5429 72.507 21.3324 72.6694 21.0838C72.8351 20.8319 72.9495 20.5436 73.0124 20.2188L74.5636 20.2237C74.4807 20.7242 74.32 21.1849 74.0813 21.6058C73.846 22.0234 73.5427 22.3847 73.1715 22.6896C72.8036 22.9912 72.3827 23.2249 71.9087 23.3906C71.4348 23.5563 70.9177 23.6392 70.3576 23.6392C69.476 23.6392 68.6905 23.4304 68.0011 23.0128C67.3117 22.5919 66.7681 21.9903 66.3704 21.2081C65.976 20.4259 65.7788 19.4929 65.7788 18.4091C65.7788 17.322 65.9776 16.389 66.3754 15.6101C66.7731 14.8279 67.3166 14.228 68.006 13.8104C68.6954 13.3894 69.4793 13.179 70.3576 13.179C70.8978 13.179 71.4016 13.2569 71.869 13.4126C72.3396 13.5651 72.7622 13.7905 73.1367 14.0888C73.5112 14.3838 73.8211 14.745 74.0664 15.1726C74.3117 15.5968 74.4774 16.0824 74.5636 16.6293ZM79.4991 23.6541C78.7832 23.6541 78.1584 23.4901 77.6248 23.1619C77.0912 22.8338 76.6769 22.3748 76.3819 21.7848C76.0869 21.1948 75.9395 20.5054 75.9395 19.7166C75.9395 18.9245 76.0869 18.2318 76.3819 17.6385C76.6769 17.0452 77.0912 16.5845 77.6248 16.2564C78.1584 15.9283 78.7832 15.7642 79.4991 15.7642C80.215 15.7642 80.8398 15.9283 81.3734 16.2564C81.907 16.5845 82.3213 17.0452 82.6163 17.6385C82.9113 18.2318 83.0588 18.9245 83.0588 19.7166C83.0588 20.5054 82.9113 21.1948 82.6163 21.7848C82.3213 22.3748 81.907 22.8338 81.3734 23.1619C80.8398 23.4901 80.215 23.6541 79.4991 23.6541ZM79.5041 22.4062C79.9681 22.4062 80.3526 22.2836 80.6575 22.0384C80.9624 21.7931 81.1878 21.4666 81.3336 21.0589C81.4828 20.6513 81.5574 20.2022 81.5574 19.7116C81.5574 19.2244 81.4828 18.777 81.3336 18.3693C81.1878 17.9583 80.9624 17.6286 80.6575 17.38C80.3526 17.1314 79.9681 17.0071 79.5041 17.0071C79.0368 17.0071 78.649 17.1314 78.3407 17.38C78.0358 17.6286 77.8088 17.9583 77.6596 18.3693C77.5138 18.777 77.4409 19.2244 77.4409 19.7116C77.4409 20.2022 77.5138 20.6513 77.6596 21.0589C77.8088 21.4666 78.0358 21.7931 78.3407 22.0384C78.649 22.2836 79.0368 22.4062 79.5041 22.4062ZM87.5767 23.6491C86.9602 23.6491 86.41 23.4917 85.9261 23.1768C85.4455 22.8587 85.0677 22.4062 84.7926 21.8196C84.5208 21.2296 84.3849 20.522 84.3849 19.6967C84.3849 18.8714 84.5225 18.1655 84.7976 17.5788C85.076 16.9922 85.4571 16.5431 85.9411 16.2315C86.425 15.92 86.9735 15.7642 87.5866 15.7642C88.0606 15.7642 88.4418 15.8438 88.7301 16.0028C89.0218 16.1586 89.2472 16.3409 89.4062 16.5497C89.5687 16.7585 89.6946 16.9425 89.7841 17.1016H89.8736V13.3182H91.3601V23.5H89.9084V22.3118H89.7841C89.6946 22.4742 89.5653 22.6598 89.3963 22.8686C89.2306 23.0774 89.0019 23.2597 88.7102 23.4155C88.4186 23.5713 88.0407 23.6491 87.5767 23.6491ZM87.9048 22.3814C88.3324 22.3814 88.6937 22.2687 88.9886 22.0433C89.2869 21.8146 89.5123 21.4981 89.6648 21.0938C89.8205 20.6894 89.8984 20.2187 89.8984 19.6818C89.8984 19.1515 89.8222 18.6875 89.6697 18.2898C89.5173 17.892 89.2936 17.5821 88.9986 17.3601C88.7036 17.138 88.339 17.027 87.9048 17.027C87.4574 17.027 87.0845 17.143 86.7862 17.375C86.4879 17.607 86.2625 17.9235 86.1101 18.3246C85.9609 18.7256 85.8864 19.178 85.8864 19.6818C85.8864 20.1922 85.9626 20.6513 86.1151 21.0589C86.2675 21.4666 86.4929 21.7898 86.7912 22.0284C87.0928 22.2637 87.464 22.3814 87.9048 22.3814ZM96.7729 23.6541C96.0205 23.6541 95.3726 23.4934 94.829 23.1719C94.2888 22.8471 93.8712 22.3913 93.5762 21.8047C93.2845 21.2147 93.1387 20.5237 93.1387 19.7315C93.1387 18.9493 93.2845 18.2599 93.5762 17.6634C93.8712 17.0668 94.2821 16.6011 94.8091 16.2663C95.3394 15.9316 95.9592 15.7642 96.6685 15.7642C97.0994 15.7642 97.517 15.8355 97.9213 15.978C98.3257 16.1205 98.6886 16.3442 99.0101 16.6491C99.3316 16.9541 99.5852 17.3501 99.7708 17.8374C99.9564 18.3213 100.049 18.9096 100.049 19.6023V20.1293H93.9789V19.0156H98.5925C98.5925 18.6245 98.513 18.2782 98.3539 17.9766C98.1948 17.6716 97.9711 17.4313 97.6827 17.2557C97.3977 17.08 97.0629 16.9922 96.6784 16.9922C96.2608 16.9922 95.8962 17.0949 95.5847 17.3004C95.2765 17.5026 95.0378 17.7678 94.8688 18.0959C94.7031 18.4207 94.6202 18.7737 94.6202 19.1548V20.0249C94.6202 20.5353 94.7097 20.9695 94.8887 21.3274C95.071 21.6854 95.3245 21.9588 95.6493 22.1477C95.9741 22.3333 96.3536 22.4261 96.7878 22.4261C97.0695 22.4261 97.3264 22.3864 97.5584 22.3068C97.7904 22.224 97.9909 22.1013 98.16 21.9389C98.329 21.7765 98.4583 21.576 98.5478 21.3374L99.9547 21.5909C99.842 22.0052 99.6399 22.3681 99.3482 22.6797C99.0598 22.9879 98.6969 23.2282 98.2594 23.4006C97.8252 23.5696 97.3297 23.6541 96.7729 23.6541Z" fill="#787878"/>
</svg>
