<svg width="20" height="18" viewBox="0 0 20 18" fill="none" xmlns="http://www.w3.org/2000/svg">
<path d="M11.1111 1.10951C11.1111 0.765758 10.9549 0.442842 10.684 0.234508C10.4132 0.026175 10.0625 -0.0502139 9.72917 0.0331194L3.48264 1.59562C2.74306 1.77965 2.22222 2.44631 2.22222 3.2102V15.554H1.11111C0.496528 15.554 0 16.0505 0 16.6651C0 17.2796 0.496528 17.7762 1.11111 17.7762H3.33333H10H11.1111V16.6651V1.10951ZM8.88889 8.88729C8.88889 9.50187 8.51736 9.9984 8.05556 9.9984C7.59375 9.9984 7.22222 9.50187 7.22222 8.88729C7.22222 8.2727 7.59375 7.77618 8.05556 7.77618C8.51736 7.77618 8.88889 8.2727 8.88889 8.88729ZM12.2222 4.44284H15.5556V16.6651C15.5556 17.2796 16.0521 17.7762 16.6667 17.7762H18.8889C19.5035 17.7762 20 17.2796 20 16.6651C20 16.0505 19.5035 15.554 18.8889 15.554H17.7778V4.44284C17.7778 3.21715 16.7812 2.22062 15.5556 2.22062H12.2222V4.44284Z" fill="#5369E8"/>
</svg>
