<svg width="21" height="20" viewBox="0 0 21 20" fill="none" xmlns="http://www.w3.org/2000/svg">
<path d="M7.45652 0H2.67391C2.09736 0 1.54441 0.229037 1.13672 0.636724C0.729037 1.04441 0.5 1.59736 0.5 2.17391V6.95652C0.5 7.53308 0.729037 8.08602 1.13672 8.49371C1.54441 8.9014 2.09736 9.13043 2.67391 9.13043H7.45652C8.03308 9.13043 8.58602 8.9014 8.99371 8.49371C9.4014 8.08602 9.63043 7.53308 9.63043 6.95652V2.17391C9.63043 1.59736 9.4014 1.04441 8.99371 0.636724C8.58602 0.229037 8.03308 0 7.45652 0ZM7.02174 6.52174H3.1087V2.6087H7.02174V6.52174ZM7.45652 10.8696H2.67391C2.09736 10.8696 1.54441 11.0986 1.13672 11.5063C0.729037 11.914 0.5 12.4669 0.5 13.0435V17.8261C0.5 18.4026 0.729037 18.9556 1.13672 19.3633C1.54441 19.771 2.09736 20 2.67391 20H7.45652C8.03308 20 8.58602 19.771 8.99371 19.3633C9.4014 18.9556 9.63043 18.4026 9.63043 17.8261V13.0435C9.63043 12.4669 9.4014 11.914 8.99371 11.5063C8.58602 11.0986 8.03308 10.8696 7.45652 10.8696ZM7.02174 17.3913H3.1087V13.4783H7.02174V17.3913ZM18.3261 0H13.5435C12.9669 0 12.414 0.229037 12.0063 0.636724C11.5986 1.04441 11.3696 1.59736 11.3696 2.17391V6.95652C11.3696 7.53308 11.5986 8.08602 12.0063 8.49371C12.414 8.9014 12.9669 9.13043 13.5435 9.13043H18.3261C18.9026 9.13043 19.4556 8.9014 19.8633 8.49371C20.271 8.08602 20.5 7.53308 20.5 6.95652V2.17391C20.5 1.59736 20.271 1.04441 19.8633 0.636724C19.4556 0.229037 18.9026 0 18.3261 0ZM17.8913 6.52174H13.9783V2.6087H17.8913V6.52174ZM11.3696 14.7826V12.1739C11.3696 11.828 11.507 11.4962 11.7516 11.2516C11.9962 11.007 12.328 10.8696 12.6739 10.8696C13.0198 10.8696 13.3516 11.007 13.5962 11.2516C13.8408 11.4962 13.9783 11.828 13.9783 12.1739V14.7826C13.9783 15.1285 13.8408 15.4603 13.5962 15.7049C13.3516 15.9495 13.0198 16.087 12.6739 16.087C12.328 16.087 11.9962 15.9495 11.7516 15.7049C11.507 15.4603 11.3696 15.1285 11.3696 14.7826ZM20.5 13.913C20.5 14.259 20.3626 14.5907 20.118 14.8354C19.8734 15.08 19.5416 15.2174 19.1957 15.2174H17.8913V18.6957C17.8913 19.0416 17.7539 19.3734 17.5093 19.618C17.2647 19.8626 16.9329 20 16.587 20H12.6739C12.328 20 11.9962 19.8626 11.7516 19.618C11.507 19.3734 11.3696 19.0416 11.3696 18.6957C11.3696 18.3497 11.507 18.018 11.7516 17.7733C11.9962 17.5287 12.328 17.3913 12.6739 17.3913H15.2826V12.1739C15.2826 11.828 15.42 11.4962 15.6646 11.2516C15.9093 11.007 16.241 10.8696 16.587 10.8696C16.9329 10.8696 17.2647 11.007 17.5093 11.2516C17.7539 11.4962 17.8913 11.828 17.8913 12.1739V12.6087H19.1957C19.5416 12.6087 19.8734 12.7461 20.118 12.9907C20.3626 13.2353 20.5 13.5671 20.5 13.913Z" fill="#5C5C5C"/>
</svg>
