<svg width="22" height="22" viewBox="0 0 22 22" fill="none" xmlns="http://www.w3.org/2000/svg">
<path d="M11 14.6667C12.5318 14.6667 13.75 13.4466 13.75 11.9167C13.75 10.3867 12.5318 9.16666 11 9.16666C9.46825 9.16666 8.25 10.3867 8.25 11.9167C8.25 13.4466 9.46825 14.6667 11 14.6667Z" fill="#505258"/>
<path d="M19.0823 10.2538C18.8662 9.19816 18.4442 8.19545 17.8402 7.30309C17.2467 6.42518 16.4906 5.66906 15.6127 5.07559C14.7202 4.47181 13.7175 4.04975 12.6619 3.83351C12.1074 3.72106 11.5429 3.66577 10.9771 3.66851V1.83334L7.33333 4.58334L10.9771 7.33334V5.50184C11.4208 5.50001 11.8644 5.54218 12.2925 5.63018C13.1129 5.7983 13.8923 6.12629 14.586 6.59543C15.2702 7.05673 15.859 7.64558 16.3203 8.32976C17.0366 9.38872 17.4185 10.6383 17.4167 11.9167C17.4165 12.7746 17.2451 13.6238 16.9125 14.4146C16.7507 14.7955 16.5531 15.1602 16.3222 15.5036C16.0904 15.845 15.827 16.1638 15.5357 16.456C14.6483 17.3417 13.5219 17.9492 12.2943 18.2041C11.4407 18.3764 10.5612 18.3764 9.7075 18.2041C8.88668 18.0358 8.10704 17.7075 7.41308 17.2379C6.72969 16.777 6.14148 16.1888 5.68058 15.5054C4.96518 14.4453 4.58306 13.1956 4.58333 11.9167H2.75C2.75098 13.5609 3.24215 15.1675 4.16075 16.5312C4.75461 17.4076 5.50996 18.163 6.38642 18.7568C7.74824 19.6785 9.3556 20.1697 11 20.1667C11.5585 20.1666 12.1156 20.1104 12.6628 19.9989C13.7177 19.7811 14.7197 19.3592 15.6127 18.7568C16.0511 18.4614 16.4597 18.124 16.8328 17.7494C17.2063 17.3749 17.5439 16.9661 17.8411 16.5284C18.762 15.167 19.2528 13.5603 19.25 11.9167C19.25 11.3582 19.1938 10.8011 19.0823 10.2538Z" fill="#505258"/>
</svg>
