<svg width="20" height="16" viewBox="0 0 20 16" fill="none" xmlns="http://www.w3.org/2000/svg">
<path d="M0 7V15.5C0 15.7763 0.22375 16 0.5 16H3V6H1C0.447812 6 0 6.44782 0 7ZM11.25 5.5H10.5V4.25C10.5 4.11188 10.3881 4 10.25 4H9.75C9.61187 4 9.5 4.11188 9.5 4.25V6.25C9.5 6.38813 9.61187 6.5 9.75 6.5H11.25C11.3881 6.5 11.5 6.38813 11.5 6.25V5.75C11.5 5.61188 11.3881 5.5 11.25 5.5ZM15.5547 3.50125L10.5547 0.167815C10.3904 0.0583876 10.1974 0 10 0C9.8026 0 9.60961 0.0583876 9.44531 0.167815L4.44531 3.50125C4.30836 3.59256 4.19606 3.71626 4.11838 3.86137C4.0407 4.00648 4.00004 4.16853 4 4.33313V16H8V11.5C8 11.2238 8.22375 11 8.5 11H11.5C11.7762 11 12 11.2238 12 11.5V16H16V4.33344C16 3.99907 15.8328 3.68657 15.5547 3.50125ZM10 8C8.61938 8 7.5 6.88063 7.5 5.5C7.5 4.11938 8.61938 3 10 3C11.3806 3 12.5 4.11938 12.5 5.5C12.5 6.88063 11.3806 8 10 8ZM19 6H17V16H19.5C19.7763 16 20 15.7763 20 15.5V7C20 6.44782 19.5522 6 19 6Z" fill="#5369E8"/>
</svg>
