<svg width="103" height="100" viewBox="0 0 103 100" fill="none" xmlns="http://www.w3.org/2000/svg">
<path d="M53.1037 11.7676C53.6495 11.1637 53.9224 10.8618 54.1389 10.8401C54.3262 10.8214 54.5068 10.9009 54.6195 11.0518C54.7496 11.2261 54.711 11.6312 54.6341 12.4415L54.1249 17.7986C54.103 18.0293 54.092 18.1446 54.1192 18.246C54.1431 18.3356 54.1881 18.417 54.2503 18.4831C54.3205 18.558 54.4211 18.6049 54.6224 18.6987L59.2965 20.8776C60.0036 21.2072 60.3571 21.372 60.4368 21.5773C60.5057 21.755 60.4822 21.9597 60.3742 22.122C60.2495 22.3096 59.8655 22.4104 59.0974 22.6122L54.0197 23.9457C53.801 24.0032 53.6918 24.0319 53.6058 24.0932C53.5298 24.1474 53.4672 24.2195 53.4234 24.3032C53.3738 24.398 53.3582 24.5128 53.3272 24.7427L52.6078 30.0816C52.4989 30.8892 52.4445 31.293 52.2773 31.4414C52.1325 31.57 51.9374 31.617 51.758 31.5665C51.5507 31.508 51.3519 31.1653 50.9542 30.4796L48.3252 25.9467C48.212 25.7516 48.1555 25.6541 48.0753 25.5905C48.0043 25.5344 47.9206 25.4975 47.8314 25.4831C47.7304 25.4668 47.6201 25.4909 47.3998 25.5392L42.2809 26.6598C41.5066 26.8294 41.1195 26.9141 40.9365 26.8006C40.7781 26.7024 40.681 26.5267 40.6782 26.3331C40.6748 26.1096 40.936 25.7968 41.4582 25.1713L44.9111 21.0362C45.0598 20.8582 45.1341 20.7692 45.1705 20.6686C45.2026 20.5798 45.2135 20.4849 45.2022 20.3922C45.1894 20.2874 45.1368 20.1874 45.0316 19.9873L42.5874 15.3412C42.2178 14.6383 42.0329 14.287 42.087 14.0683C42.1339 13.879 42.269 13.7235 42.4466 13.6544C42.6518 13.5746 43.0121 13.7241 43.7325 14.0232L48.4955 16.0004C48.7006 16.0856 48.8031 16.1281 48.9058 16.1294C48.9966 16.1306 49.087 16.1089 49.1693 16.066C49.2624 16.0176 49.3401 15.9316 49.4954 15.7598L53.1037 11.7676Z" stroke="white" stroke-width="3" stroke-linecap="round" stroke-linejoin="round"/>
<path d="M86.6339 42.7402C87.3872 42.4318 87.7638 42.2775 87.9684 42.3516C88.1454 42.4157 88.2738 42.5655 88.3102 42.7503C88.3521 42.9637 88.1422 43.3123 87.7224 44.0097L84.9468 48.6199C84.8273 48.8184 84.7676 48.9176 84.7482 49.0208C84.731 49.1119 84.7364 49.2048 84.7638 49.2913C84.7948 49.3892 84.8653 49.475 85.0061 49.6466L88.2785 53.6324C88.7736 54.2354 89.0211 54.5368 89.0041 54.7564C88.9894 54.9464 88.8797 55.1208 88.7121 55.2204C88.5186 55.3357 88.1287 55.2605 87.3489 55.1103L82.1939 54.1171C81.9718 54.0744 81.8609 54.053 81.7569 54.0711C81.6649 54.0872 81.5773 54.1251 81.5016 54.1815C81.4159 54.2456 81.3522 54.3424 81.2249 54.5363L78.2675 59.0392C77.8202 59.7202 77.5965 60.0608 77.3816 60.1224C77.1954 60.1757 76.9992 60.1337 76.8593 60.0106C76.6977 59.8682 76.6666 59.4732 76.6045 58.683L76.194 53.459C76.1763 53.2341 76.1675 53.1217 76.1227 53.0297C76.083 52.9484 76.0234 52.879 75.9493 52.8274C75.8652 52.7691 75.7554 52.7431 75.5358 52.6913L70.4357 51.4884C69.6642 51.3064 69.2785 51.2154 69.1626 51.034C69.0623 50.8769 69.0506 50.6766 69.1318 50.5008C69.2254 50.2977 69.5961 50.1286 70.3375 49.7905L75.239 47.555C75.45 47.4588 75.5555 47.4107 75.6318 47.3357C75.6992 47.2695 75.75 47.1887 75.7799 47.1002C75.8137 47.0002 75.8095 46.8873 75.8012 46.6614L75.6064 41.4152C75.577 40.6215 75.5622 40.2248 75.7056 40.051C75.8297 39.9006 76.0188 39.8188 76.2088 39.8333C76.4283 39.8501 76.6885 40.1407 77.2088 40.7219L80.6485 44.5643C80.7966 44.7297 80.8706 44.8124 80.9627 44.8581C81.044 44.8984 81.135 44.9178 81.2276 44.9148C81.3325 44.9114 81.4397 44.8675 81.6541 44.7797L86.6339 42.7402Z" stroke="white" stroke-width="3" stroke-linecap="round" stroke-linejoin="round"/>
<path d="M23.6197 54.3251C24.373 54.0167 24.7496 53.8624 24.9542 53.9365C25.1312 54.0006 25.2596 54.1504 25.296 54.3352C25.338 54.5486 25.128 54.8972 24.7082 55.5946L21.9327 60.2048C21.8132 60.4033 21.7534 60.5025 21.734 60.6057C21.7169 60.6968 21.7223 60.7897 21.7497 60.8762C21.7807 60.9741 21.8511 61.0599 21.992 61.2315L25.2644 65.2173C25.7594 65.8203 26.0069 66.1217 25.99 66.3413C25.9753 66.5313 25.8656 66.7057 25.698 66.8053C25.5044 66.9206 25.1146 66.8454 24.3347 66.6952L19.1797 65.702C18.9577 65.6593 18.8468 65.6379 18.7427 65.656C18.6507 65.6721 18.5631 65.71 18.4875 65.7664C18.4017 65.8305 18.3381 65.9273 18.2107 66.1212L15.2534 70.6241C14.806 71.3051 14.5824 71.6457 14.3674 71.7073C14.1813 71.7606 13.985 71.7186 13.8451 71.5955C13.6835 71.4531 13.6524 71.0581 13.5904 70.2679L13.1798 65.0439C13.1622 64.819 13.1534 64.7066 13.1085 64.6146C13.0688 64.5333 13.0093 64.4639 12.9351 64.4123C12.851 64.354 12.7412 64.328 12.5216 64.2762L7.42154 63.0733C6.65006 62.8913 6.26437 62.8003 6.1484 62.6189C6.04811 62.4618 6.03649 62.2615 6.11761 62.0857C6.21127 61.8826 6.58198 61.7135 7.32338 61.3754L12.2248 59.1399C12.4359 59.0437 12.5413 58.9956 12.6177 58.9206C12.685 58.8544 12.7359 58.7736 12.7658 58.6851C12.7995 58.5851 12.7953 58.4722 12.787 58.2463L12.5922 53.0001C12.5628 52.2064 12.548 51.8097 12.6914 51.6359C12.8155 51.4855 13.0046 51.4037 13.1946 51.4182C13.4142 51.435 13.6743 51.7256 14.1946 52.3068L17.6343 56.1492C17.7824 56.3146 17.8564 56.3973 17.9485 56.443C18.0298 56.4833 18.1208 56.5027 18.2135 56.4997C18.3184 56.4963 18.4256 56.4524 18.64 56.3646L23.6197 54.3251Z" stroke="white" stroke-width="3" stroke-linecap="round" stroke-linejoin="round"/>
</svg>
