<svg width="12" height="13" viewBox="0 0 12 13" fill="none" xmlns="http://www.w3.org/2000/svg">
<path d="M6 0.218018C4.81331 0.218018 3.65328 0.569911 2.66658 1.2292C1.67989 1.88849 0.910851 2.82556 0.456725 3.92192C0.00259969 5.01827 -0.11622 6.22467 0.115291 7.38856C0.346802 8.55244 0.918247 9.62154 1.75736 10.4607C2.59648 11.2998 3.66557 11.8712 4.82946 12.1027C5.99335 12.3342 7.19974 12.2154 8.2961 11.7613C9.39246 11.3072 10.3295 10.5381 10.9888 9.55144C11.6481 8.56474 12 7.4047 12 6.21802C12 4.62672 11.3679 3.10059 10.2426 1.97538C9.11742 0.850159 7.5913 0.218018 6 0.218018ZM6 11.468C4.96165 11.468 3.94662 11.1601 3.08326 10.5832C2.2199 10.0064 1.54699 9.18642 1.14963 8.2271C0.752275 7.26779 0.648307 6.21219 0.85088 5.19379C1.05345 4.17539 1.55347 3.23993 2.28769 2.50571C3.02192 1.77148 3.95738 1.27147 4.97578 1.06889C5.99418 0.866322 7.04978 0.97029 8.00909 1.36765C8.9684 1.76501 9.78834 2.43792 10.3652 3.30127C10.9421 4.16463 11.25 5.17966 11.25 6.21802C11.25 7.6104 10.6969 8.94576 9.71231 9.93033C8.72775 10.9149 7.39239 11.468 6 11.468Z" fill="#505258"/>
<path d="M6.34512 6.36802V3.49927C6.34512 3.39981 6.30561 3.30443 6.23529 3.2341C6.16496 3.16378 6.06958 3.12427 5.97012 3.12427C5.87067 3.12427 5.77528 3.16378 5.70496 3.2341C5.63463 3.30443 5.59512 3.39981 5.59512 3.49927V6.76927L7.80762 8.26927C7.84838 8.29992 7.89496 8.32194 7.94451 8.33398C7.99407 8.34602 8.04556 8.34782 8.09584 8.33928C8.14611 8.33074 8.19412 8.31203 8.23692 8.28431C8.27972 8.25658 8.31642 8.22041 8.34476 8.17802C8.37311 8.13563 8.39251 8.0879 8.40178 8.03775C8.41106 7.98761 8.41 7.93609 8.39869 7.88637C8.38737 7.83664 8.36603 7.78975 8.33597 7.74855C8.30592 7.70735 8.26777 7.67272 8.22387 7.64677L6.34512 6.36802Z" fill="#505258"/>
<path d="M2.25005 6.19556C2.24662 5.52095 2.42633 4.85805 2.77003 4.27755C3.11373 3.69705 3.60853 3.22071 4.20167 2.89931C4.79481 2.57792 5.46406 2.42352 6.13805 2.45257C6.81204 2.48163 7.46552 2.69306 8.02879 3.06431L8.34754 2.55431C7.81251 2.20384 7.20649 1.97621 6.57302 1.88778C5.93956 1.79936 5.29437 1.85233 4.68381 2.04289C4.07325 2.23344 3.51247 2.55686 3.04176 2.98991C2.57105 3.42295 2.20209 3.95488 1.96138 4.54746C1.72068 5.14005 1.61421 5.77859 1.64962 6.41722C1.68503 7.05585 1.86144 7.6787 2.16617 8.24105C2.47091 8.80339 2.89642 9.29127 3.41211 9.66962C3.92781 10.048 4.52091 10.3074 5.14879 10.4293L5.25004 9.85556C4.40554 9.68318 3.64619 9.22515 3.0998 8.55855C2.5534 7.89195 2.25332 7.05747 2.25005 6.19556Z" fill="#505258"/>
</svg>
