<svg width="149" height="100" viewBox="0 0 149 100" fill="none" xmlns="http://www.w3.org/2000/svg">
<path d="M17.1875 59.375L12.5 50H45.3125L41.5625 40.625H10.9375L6.25 31.25H55L51.25 21.875H5.375L0 12.5H23.4375C23.4375 9.18479 24.7545 6.00537 27.0987 3.66116C29.4429 1.31696 32.6223 0 35.9375 0H110.938V25H129.688L148.438 50V81.25H135.938C135.938 86.2228 133.962 90.9919 130.446 94.5083C126.929 98.0246 122.16 100 117.188 100C112.215 100 107.446 98.0246 103.929 94.5083C100.413 90.9919 98.4375 86.2228 98.4375 81.25H73.4375C73.4375 86.2228 71.4621 90.9919 67.9458 94.5083C64.4295 98.0246 59.6603 100 54.6875 100C49.7147 100 44.9456 98.0246 41.4293 94.5083C37.9129 90.9919 35.9375 86.2228 35.9375 81.25H23.4375V59.375H17.1875ZM117.188 90.625C119.674 90.625 122.058 89.6373 123.817 87.8791C125.575 86.121 126.563 83.7364 126.563 81.25C126.563 78.7636 125.575 76.379 123.817 74.6209C122.058 72.8627 119.674 71.875 117.188 71.875C114.701 71.875 112.317 72.8627 110.558 74.6209C108.8 76.379 107.813 78.7636 107.813 81.25C107.813 83.7364 108.8 86.121 110.558 87.8791C112.317 89.6373 114.701 90.625 117.188 90.625ZM126.563 34.375H110.938V50H138.813L126.563 34.375ZM54.6875 90.625C57.1739 90.625 59.5585 89.6373 61.3166 87.8791C63.0748 86.121 64.0625 83.7364 64.0625 81.25C64.0625 78.7636 63.0748 76.379 61.3166 74.6209C59.5585 72.8627 57.1739 71.875 54.6875 71.875C52.2011 71.875 49.8165 72.8627 48.0584 74.6209C46.3002 76.379 45.3125 78.7636 45.3125 81.25C45.3125 83.7364 46.3002 86.121 48.0584 87.8791C49.8165 89.6373 52.2011 90.625 54.6875 90.625Z" fill="white"/>
</svg>
