<svg width="16" height="12" viewBox="0 0 16 12" fill="none" xmlns="http://www.w3.org/2000/svg">
<path d="M1.85263 7.01426L1.34737 6.00373H4.88421L4.48 4.99321H1.17895L0.673684 3.98268H5.92842L5.52421 2.97215H0.579368L0 1.96163H2.52632C2.52632 1.60428 2.66827 1.26157 2.92095 1.00889C3.17363 0.756212 3.51634 0.614258 3.87368 0.614258H11.9579V3.309H13.9789L16 6.00373V9.37215H14.6526C14.6526 9.90817 14.4397 10.4222 14.0607 10.8013C13.6817 11.1803 13.1676 11.3932 12.6316 11.3932C12.0956 11.3932 11.5815 11.1803 11.2025 10.8013C10.8235 10.4222 10.6105 9.90817 10.6105 9.37215H7.91579C7.91579 9.90817 7.70286 10.4222 7.32384 10.8013C6.94482 11.1803 6.43075 11.3932 5.89474 11.3932C5.35872 11.3932 4.84466 11.1803 4.46564 10.8013C4.08662 10.4222 3.87368 9.90817 3.87368 9.37215H2.52632V7.01426H1.85263ZM12.6316 10.3827C12.8996 10.3827 13.1566 10.2762 13.3461 10.0867C13.5356 9.89719 13.6421 9.64016 13.6421 9.37215C13.6421 9.10415 13.5356 8.84711 13.3461 8.6576C13.1566 8.46809 12.8996 8.36163 12.6316 8.36163C12.3636 8.36163 12.1065 8.46809 11.917 8.6576C11.7275 8.84711 11.6211 9.10415 11.6211 9.37215C11.6211 9.64016 11.7275 9.89719 11.917 10.0867C12.1065 10.2762 12.3636 10.3827 12.6316 10.3827ZM13.6421 4.31952H11.9579V6.00373H14.9625L13.6421 4.31952ZM5.89474 10.3827C6.16275 10.3827 6.41978 10.2762 6.60929 10.0867C6.7988 9.89719 6.90526 9.64016 6.90526 9.37215C6.90526 9.10415 6.7988 8.84711 6.60929 8.6576C6.41978 8.46809 6.16275 8.36163 5.89474 8.36163C5.62673 8.36163 5.3697 8.46809 5.18019 8.6576C4.99068 8.84711 4.88421 9.10415 4.88421 9.37215C4.88421 9.64016 4.99068 9.89719 5.18019 10.0867C5.3697 10.2762 5.62673 10.3827 5.89474 10.3827Z" fill="#505258"/>
</svg>
