<svg width="20" height="18" viewBox="0 0 20 18" fill="none" xmlns="http://www.w3.org/2000/svg">
<path d="M18.3333 0H1.66667C0.746528 0 0 0.746528 0 1.66667V12.7778C0 13.6979 0.746528 14.4444 1.66667 14.4444H8.33333L7.77778 16.1111H5.27778C4.81597 16.1111 4.44444 16.4826 4.44444 16.9444C4.44444 17.4062 4.81597 17.7778 5.27778 17.7778H14.7222C15.184 17.7778 15.5556 17.4062 15.5556 16.9444C15.5556 16.4826 15.184 16.1111 14.7222 16.1111H12.2222L11.6667 14.4444H18.3333C19.2535 14.4444 20 13.6979 20 12.7778V1.66667C20 0.746528 19.2535 0 18.3333 0ZM17.7778 12.2222H2.22222V2.22222H17.7778V12.2222Z" fill="#5369E8"/>
</svg>
