<svg width="88" height="100" viewBox="0 0 88 100" fill="none" xmlns="http://www.w3.org/2000/svg">
<path d="M43.75 50C50.3804 50 56.7393 47.3661 61.4277 42.6777C66.1161 37.9893 68.75 31.6304 68.75 25C68.75 18.3696 66.1161 12.0107 61.4277 7.32233C56.7393 2.63392 50.3804 0 43.75 0C37.1196 0 30.7607 2.63392 26.0723 7.32233C21.3839 12.0107 18.75 18.3696 18.75 25C18.75 31.6304 21.3839 37.9893 26.0723 42.6777C30.7607 47.3661 37.1196 50 43.75 50ZM34.8242 59.375C15.5859 59.375 0 74.9609 0 94.1992C0 97.4023 2.59766 100 5.80078 100H81.6992C84.9023 100 87.5 97.4023 87.5 94.1992C87.5 74.9609 71.9141 59.375 52.6758 59.375H34.8242Z" fill="white"/>
</svg>
